<svg xmlns="http://www.w3.org/2000/svg" xmlns:xlink="http://www.w3.org/1999/xlink" width="336" zoomAndPan="magnify" viewBox="0 0 252 143.999998" height="192" preserveAspectRatio="xMidYMid meet" version="1.0"><defs><g/></defs><g fill="#c1a47d" fill-opacity="1"><g transform="translate(87.149462, 59.350058)"><g><path d="M 3.78125 10 C 3.445312 10 3.144531 9.984375 2.875 9.953125 C 2.613281 9.921875 2.390625 9.882812 2.203125 9.84375 C 1.828125 9.738281 1.550781 9.632812 1.375 9.53125 C 1.195312 9.4375 0.957031 9.296875 0.65625 9.109375 C 0.507812 8.941406 0.363281 8.78125 0.21875 8.625 C 0.0703125 8.46875 0 8.328125 0 8.203125 C 0 8.097656 0.0390625 8.015625 0.125 7.953125 C 0.1875 7.816406 0.257812 7.75 0.34375 7.75 C 0.46875 7.75 0.632812 7.941406 0.84375 8.328125 C 1.082031 8.617188 1.335938 8.816406 1.609375 8.921875 C 1.878906 9.023438 2.179688 9.128906 2.515625 9.234375 C 2.773438 9.296875 3.0625 9.328125 3.375 9.328125 C 3.789062 9.328125 4.222656 9.273438 4.671875 9.171875 C 5.128906 9.066406 5.566406 8.941406 5.984375 8.796875 C 6.679688 8.609375 7.347656 8.34375 7.984375 8 C 8.628906 7.664062 9.394531 7.269531 10.28125 6.8125 C 11.3125 6.257812 12.332031 5.71875 13.34375 5.1875 C 14.363281 4.65625 15.359375 4.082031 16.328125 3.46875 C 17.003906 3.050781 17.664062 2.625 18.3125 2.1875 C 18.96875 1.757812 19.613281 1.3125 20.25 0.84375 C 20.851562 0.363281 21.453125 -0.09375 22.046875 -0.53125 C 22.648438 -0.976562 23.25 -1.429688 23.84375 -1.890625 C 24.488281 -2.367188 25.125 -2.859375 25.75 -3.359375 C 26.382812 -3.867188 27.007812 -4.378906 27.625 -4.890625 C 28.039062 -5.242188 28.4375 -5.601562 28.8125 -5.96875 C 29.195312 -6.34375 29.585938 -6.695312 29.984375 -7.03125 C 30.398438 -7.382812 30.804688 -7.734375 31.203125 -8.078125 C 31.609375 -8.429688 32.015625 -8.785156 32.421875 -9.140625 C 32.460938 -9.160156 32.515625 -9.203125 32.578125 -9.265625 C 33.078125 -9.734375 33.578125 -10.203125 34.078125 -10.671875 C 34.585938 -11.140625 35.09375 -11.609375 35.59375 -12.078125 C 35.832031 -12.265625 36.054688 -12.453125 36.265625 -12.640625 C 36.472656 -12.828125 36.691406 -13.007812 36.921875 -13.1875 C 37.148438 -13.351562 37.351562 -13.523438 37.53125 -13.703125 C 37.71875 -13.878906 37.914062 -14.050781 38.125 -14.21875 C 38.601562 -14.632812 39.078125 -15.050781 39.546875 -15.46875 C 40.023438 -15.894531 40.492188 -16.3125 40.953125 -16.71875 L 42.71875 -18.28125 C 43.082031 -18.582031 43.445312 -18.882812 43.8125 -19.1875 C 44.175781 -19.488281 44.539062 -19.785156 44.90625 -20.078125 L 46.546875 -21.5 C 46.710938 -21.625 46.84375 -21.722656 46.9375 -21.796875 C 47.03125 -21.878906 47.179688 -21.992188 47.390625 -22.140625 C 47.035156 -22.203125 46.71875 -22.265625 46.4375 -22.328125 C 46.164062 -22.390625 45.875 -22.445312 45.5625 -22.5 C 45.25 -22.550781 44.828125 -22.609375 44.296875 -22.671875 C 43.960938 -22.710938 43.671875 -22.753906 43.421875 -22.796875 C 43.171875 -22.835938 42.863281 -22.867188 42.5 -22.890625 C 42.019531 -22.929688 41.628906 -22.96875 41.328125 -23 C 41.035156 -23.03125 40.617188 -23.054688 40.078125 -23.078125 C 39.765625 -23.117188 39.453125 -23.140625 39.140625 -23.140625 C 38.835938 -23.140625 38.5 -23.148438 38.125 -23.171875 L 35.59375 -23.328125 C 35.488281 -23.328125 35.335938 -23.332031 35.140625 -23.34375 C 34.941406 -23.351562 34.695312 -23.359375 34.40625 -23.359375 C 33.851562 -23.359375 33.097656 -23.3125 32.140625 -23.21875 C 31.191406 -23.125 29.976562 -22.921875 28.5 -22.609375 C 27.550781 -22.335938 26.617188 -22 25.703125 -21.59375 C 24.796875 -21.195312 23.921875 -20.75 23.078125 -20.25 C 22.554688 -19.90625 22.023438 -19.515625 21.484375 -19.078125 C 20.953125 -18.640625 20.441406 -18.070312 19.953125 -17.375 C 19.929688 -17.351562 19.898438 -17.320312 19.859375 -17.28125 C 19.816406 -17.238281 19.765625 -17.226562 19.703125 -17.25 C 19.597656 -17.289062 19.566406 -17.363281 19.609375 -17.46875 C 20.015625 -18.164062 20.382812 -18.660156 20.71875 -18.953125 C 20.882812 -19.117188 21.1875 -19.378906 21.625 -19.734375 C 22.070312 -20.097656 22.492188 -20.394531 22.890625 -20.625 C 23.671875 -21.101562 24.445312 -21.515625 25.21875 -21.859375 C 26 -22.210938 26.882812 -22.546875 27.875 -22.859375 C 28.0625 -22.921875 28.226562 -22.976562 28.375 -23.03125 C 28.519531 -23.082031 28.675781 -23.117188 28.84375 -23.140625 C 29.269531 -23.242188 29.691406 -23.332031 30.109375 -23.40625 C 30.535156 -23.476562 30.976562 -23.535156 31.4375 -23.578125 C 31.914062 -23.671875 32.410156 -23.722656 32.921875 -23.734375 C 33.441406 -23.742188 33.957031 -23.75 34.46875 -23.75 L 35.5 -23.75 C 35.800781 -23.75 36.039062 -23.742188 36.21875 -23.734375 C 36.394531 -23.722656 36.710938 -23.695312 37.171875 -23.65625 L 38.59375 -23.578125 C 38.820312 -23.554688 39.035156 -23.546875 39.234375 -23.546875 C 39.441406 -23.546875 39.679688 -23.535156 39.953125 -23.515625 C 40.179688 -23.492188 40.40625 -23.476562 40.625 -23.46875 C 40.84375 -23.457031 41.050781 -23.429688 41.25 -23.390625 C 41.4375 -23.367188 41.585938 -23.359375 41.703125 -23.359375 C 41.816406 -23.359375 42 -23.335938 42.25 -23.296875 C 42.4375 -23.273438 42.640625 -23.253906 42.859375 -23.234375 C 43.085938 -23.210938 43.234375 -23.203125 43.296875 -23.203125 C 43.835938 -23.140625 44.269531 -23.082031 44.59375 -23.03125 C 44.925781 -22.976562 45.25 -22.925781 45.5625 -22.875 C 45.875 -22.820312 46.265625 -22.753906 46.734375 -22.671875 C 46.921875 -22.648438 47.085938 -22.625 47.234375 -22.59375 C 47.378906 -22.5625 47.566406 -22.523438 47.796875 -22.484375 C 49.878906 -24.367188 52.078125 -26.226562 54.390625 -28.0625 C 56.703125 -29.894531 58.972656 -31.679688 61.203125 -33.421875 C 60.804688 -33.335938 60.363281 -33.265625 59.875 -33.203125 C 59.394531 -33.140625 58.867188 -33.066406 58.296875 -32.984375 C 57.734375 -32.898438 57.160156 -32.816406 56.578125 -32.734375 C 56.003906 -32.648438 55.429688 -32.566406 54.859375 -32.484375 C 54.566406 -32.460938 54.300781 -32.429688 54.0625 -32.390625 C 53.820312 -32.359375 53.5 -32.320312 53.09375 -32.28125 C 52.84375 -32.28125 52.390625 -32.265625 51.734375 -32.234375 C 51.085938 -32.203125 50.394531 -32.171875 49.65625 -32.140625 C 48.925781 -32.109375 48.285156 -32.082031 47.734375 -32.0625 L 39.25 -32.0625 C 39.0625 -32.0625 38.773438 -32.0625 38.390625 -32.0625 C 38.003906 -32.0625 37.566406 -32.050781 37.078125 -32.03125 C 36.578125 -32.03125 36.144531 -32.023438 35.78125 -32.015625 C 35.425781 -32.003906 34.988281 -32 34.46875 -32 C 33.875 -31.976562 33.410156 -31.960938 33.078125 -31.953125 C 32.742188 -31.941406 32.363281 -31.914062 31.9375 -31.875 C 31.5 -31.875 31.101562 -31.859375 30.75 -31.828125 C 30.40625 -31.796875 30.097656 -31.757812 29.828125 -31.71875 C 29.265625 -31.675781 28.800781 -31.625 28.4375 -31.5625 C 28.082031 -31.5 27.738281 -31.429688 27.40625 -31.359375 C 27.082031 -31.285156 26.691406 -31.207031 26.234375 -31.125 C 24.765625 -30.875 23.328125 -30.554688 21.921875 -30.171875 C 21.535156 -30.085938 21.195312 -29.984375 20.90625 -29.859375 C 20.613281 -29.734375 20.210938 -29.578125 19.703125 -29.390625 C 19.304688 -29.203125 18.898438 -29.03125 18.484375 -28.875 C 18.078125 -28.726562 17.675781 -28.550781 17.28125 -28.34375 C 16.414062 -27.882812 15.5625 -27.414062 14.71875 -26.9375 C 13.882812 -26.46875 13.066406 -25.925781 12.265625 -25.3125 C 11.929688 -25.039062 11.585938 -24.769531 11.234375 -24.5 C 10.890625 -24.226562 10.5625 -23.929688 10.25 -23.609375 C 10.101562 -23.460938 9.9375 -23.304688 9.75 -23.140625 C 9.570312 -22.972656 9.390625 -22.828125 9.203125 -22.703125 C 9.035156 -22.554688 8.859375 -22.367188 8.671875 -22.140625 C 8.484375 -21.921875 8.265625 -21.664062 8.015625 -21.375 C 7.929688 -21.226562 7.84375 -21.09375 7.75 -20.96875 C 7.664062 -20.84375 7.5625 -20.738281 7.4375 -20.65625 C 7.351562 -20.65625 7.300781 -20.679688 7.28125 -20.734375 C 7.257812 -20.785156 7.238281 -20.851562 7.21875 -20.9375 C 7.363281 -21.207031 7.523438 -21.460938 7.703125 -21.703125 C 7.890625 -21.953125 8.054688 -22.179688 8.203125 -22.390625 C 9.117188 -23.316406 10.097656 -24.207031 11.140625 -25.0625 C 12.179688 -25.925781 13.28125 -26.695312 14.4375 -27.375 C 15.09375 -27.75 15.738281 -28.097656 16.375 -28.421875 C 17.019531 -28.753906 17.703125 -29.085938 18.421875 -29.421875 C 18.585938 -29.484375 18.78125 -29.550781 19 -29.625 C 19.21875 -29.695312 19.410156 -29.773438 19.578125 -29.859375 C 20.003906 -30.023438 20.34375 -30.15625 20.59375 -30.25 C 20.84375 -30.34375 21.113281 -30.429688 21.40625 -30.515625 C 21.894531 -30.648438 22.296875 -30.765625 22.609375 -30.859375 C 22.921875 -30.953125 23.351562 -31.070312 23.90625 -31.21875 C 24.300781 -31.300781 24.851562 -31.410156 25.5625 -31.546875 C 26.28125 -31.679688 26.96875 -31.789062 27.625 -31.875 C 28.019531 -31.914062 28.332031 -31.957031 28.5625 -32 C 28.800781 -32.039062 29.128906 -32.082031 29.546875 -32.125 C 29.941406 -32.164062 30.226562 -32.195312 30.40625 -32.21875 C 30.59375 -32.238281 30.84375 -32.257812 31.15625 -32.28125 C 31.40625 -32.300781 31.75 -32.332031 32.1875 -32.375 C 32.632812 -32.425781 32.972656 -32.453125 33.203125 -32.453125 C 33.722656 -32.472656 34.144531 -32.484375 34.46875 -32.484375 C 34.800781 -32.484375 35.226562 -32.484375 35.75 -32.484375 L 39.34375 -32.484375 C 39.4375 -32.523438 39.59375 -32.539062 39.8125 -32.53125 C 40.03125 -32.519531 40.273438 -32.515625 40.546875 -32.515625 C 40.691406 -32.535156 40.921875 -32.546875 41.234375 -32.546875 C 41.554688 -32.546875 41.878906 -32.546875 42.203125 -32.546875 C 42.523438 -32.546875 42.773438 -32.546875 42.953125 -32.546875 C 43.347656 -32.566406 43.6875 -32.578125 43.96875 -32.578125 C 44.25 -32.578125 44.53125 -32.578125 44.8125 -32.578125 C 45.082031 -32.578125 45.359375 -32.578125 45.640625 -32.578125 C 45.921875 -32.578125 46.253906 -32.566406 46.640625 -32.546875 C 46.890625 -32.546875 47.148438 -32.546875 47.421875 -32.546875 C 47.691406 -32.546875 48.007812 -32.554688 48.375 -32.578125 C 48.769531 -32.578125 49.050781 -32.582031 49.21875 -32.59375 C 49.382812 -32.601562 49.601562 -32.609375 49.875 -32.609375 C 49.988281 -32.648438 50.207031 -32.679688 50.53125 -32.703125 C 50.851562 -32.722656 51.066406 -32.722656 51.171875 -32.703125 C 51.398438 -32.722656 51.742188 -32.742188 52.203125 -32.765625 C 52.671875 -32.785156 53.109375 -32.804688 53.515625 -32.828125 C 53.953125 -32.867188 54.421875 -32.925781 54.921875 -33 C 55.429688 -33.070312 55.90625 -33.140625 56.34375 -33.203125 L 58.390625 -33.515625 C 58.472656 -33.535156 58.597656 -33.554688 58.765625 -33.578125 C 58.941406 -33.597656 59.070312 -33.617188 59.15625 -33.640625 C 59.988281 -33.742188 60.75 -33.9375 61.4375 -34.21875 C 62.125 -34.507812 62.8125 -34.90625 63.5 -35.40625 C 63.664062 -35.507812 63.832031 -35.609375 64 -35.703125 C 64.175781 -35.796875 64.335938 -35.890625 64.484375 -35.984375 C 64.585938 -36.066406 64.726562 -36.140625 64.90625 -36.203125 C 65.082031 -36.265625 65.253906 -36.296875 65.421875 -36.296875 C 65.617188 -36.296875 65.789062 -36.253906 65.9375 -36.171875 C 66.144531 -36.085938 66.25 -35.945312 66.25 -35.75 C 66.25 -35.625 66.21875 -35.539062 66.15625 -35.5 C 66.070312 -35.375 65.972656 -35.257812 65.859375 -35.15625 C 65.742188 -35.050781 65.617188 -34.945312 65.484375 -34.84375 C 65.316406 -34.695312 65.160156 -34.554688 65.015625 -34.421875 C 64.867188 -34.285156 64.722656 -34.160156 64.578125 -34.046875 C 64.128906 -33.648438 63.6875 -33.257812 63.25 -32.875 C 62.8125 -32.5 62.367188 -32.125 61.921875 -31.75 C 61.628906 -31.476562 61.34375 -31.207031 61.0625 -30.9375 C 60.78125 -30.675781 60.476562 -30.421875 60.15625 -30.171875 C 59.46875 -29.648438 58.796875 -29.09375 58.140625 -28.5 C 57.492188 -27.914062 56.800781 -27.359375 56.0625 -26.828125 C 55.976562 -26.765625 55.863281 -26.660156 55.71875 -26.515625 C 55.3125 -26.097656 54.878906 -25.695312 54.421875 -25.3125 C 53.960938 -24.9375 53.5 -24.550781 53.03125 -24.15625 C 52.738281 -23.925781 52.445312 -23.671875 52.15625 -23.390625 C 51.863281 -23.117188 51.566406 -22.859375 51.265625 -22.609375 C 51.222656 -22.566406 51.144531 -22.488281 51.03125 -22.375 C 50.914062 -22.257812 50.816406 -22.148438 50.734375 -22.046875 C 51.003906 -22.003906 51.382812 -21.957031 51.875 -21.90625 C 52.375 -21.863281 52.898438 -21.832031 53.453125 -21.8125 C 54.015625 -21.789062 54.546875 -21.773438 55.046875 -21.765625 C 55.554688 -21.753906 55.945312 -21.75 56.21875 -21.75 C 57.0625 -21.789062 57.890625 -21.863281 58.703125 -21.96875 C 59.523438 -22.082031 60.347656 -22.210938 61.171875 -22.359375 C 61.773438 -22.460938 62.34375 -22.628906 62.875 -22.859375 C 63.414062 -23.085938 63.941406 -23.375 64.453125 -23.71875 C 64.554688 -23.800781 64.660156 -23.878906 64.765625 -23.953125 C 64.867188 -24.023438 64.972656 -24.09375 65.078125 -24.15625 C 65.117188 -24.195312 65.171875 -24.234375 65.234375 -24.265625 C 65.296875 -24.296875 65.359375 -24.3125 65.421875 -24.3125 C 65.460938 -24.269531 65.484375 -24.226562 65.484375 -24.1875 C 65.484375 -24.039062 65.398438 -23.914062 65.234375 -23.8125 C 65.148438 -23.769531 65.09375 -23.734375 65.0625 -23.703125 C 65.03125 -23.671875 64.992188 -23.628906 64.953125 -23.578125 C 64.390625 -23.242188 63.945312 -22.972656 63.625 -22.765625 C 63.3125 -22.554688 62.882812 -22.378906 62.34375 -22.234375 C 61.707031 -22.066406 61.070312 -21.921875 60.4375 -21.796875 C 59.8125 -21.679688 59.179688 -21.59375 58.546875 -21.53125 C 58.023438 -21.488281 57.59375 -21.453125 57.25 -21.421875 C 56.914062 -21.390625 56.585938 -21.367188 56.265625 -21.359375 C 55.941406 -21.347656 55.515625 -21.332031 54.984375 -21.3125 C 54.816406 -21.3125 54.523438 -21.320312 54.109375 -21.34375 C 53.691406 -21.363281 53.269531 -21.382812 52.84375 -21.40625 L 51.71875 -21.5 C 51.5625 -21.519531 51.359375 -21.546875 51.109375 -21.578125 C 50.859375 -21.609375 50.585938 -21.65625 50.296875 -21.71875 C 50.191406 -21.632812 50.113281 -21.570312 50.0625 -21.53125 C 50.007812 -21.488281 49.9375 -21.425781 49.84375 -21.34375 C 49.59375 -21.132812 49.34375 -20.929688 49.09375 -20.734375 C 48.84375 -20.535156 48.59375 -20.316406 48.34375 -20.078125 C 48.1875 -19.929688 48.019531 -19.785156 47.84375 -19.640625 C 47.664062 -19.492188 47.492188 -19.359375 47.328125 -19.234375 C 46.867188 -18.878906 46.410156 -18.515625 45.953125 -18.140625 C 45.503906 -17.773438 45.066406 -17.394531 44.640625 -17 C 44.265625 -16.613281 43.867188 -16.253906 43.453125 -15.921875 C 43.046875 -15.585938 42.632812 -15.238281 42.21875 -14.875 C 42.132812 -14.8125 42.054688 -14.742188 41.984375 -14.671875 C 41.910156 -14.597656 41.832031 -14.519531 41.75 -14.4375 C 41.320312 -14.019531 40.882812 -13.609375 40.4375 -13.203125 C 39.988281 -12.804688 39.519531 -12.429688 39.03125 -12.078125 C 38.96875 -12.035156 38.875 -11.953125 38.75 -11.828125 C 38.332031 -11.378906 37.890625 -10.960938 37.421875 -10.578125 C 36.960938 -10.191406 36.492188 -9.796875 36.015625 -9.390625 C 35.921875 -9.347656 35.84375 -9.289062 35.78125 -9.21875 C 35.71875 -9.144531 35.65625 -9.078125 35.59375 -9.015625 C 35.070312 -8.535156 34.546875 -8.039062 34.015625 -7.53125 C 33.492188 -7.03125 32.945312 -6.546875 32.375 -6.078125 C 31.789062 -5.578125 31.195312 -5.066406 30.59375 -4.546875 C 30 -4.035156 29.382812 -3.539062 28.75 -3.0625 C 28.101562 -2.570312 27.453125 -2.0625 26.796875 -1.53125 C 26.148438 -1.007812 25.488281 -0.5 24.8125 0 C 24.3125 0.394531 23.800781 0.785156 23.28125 1.171875 C 22.769531 1.566406 22.238281 1.941406 21.6875 2.296875 C 20.957031 2.785156 20.210938 3.269531 19.453125 3.75 C 18.691406 4.238281 17.914062 4.691406 17.125 5.109375 C 16.425781 5.503906 15.726562 5.875 15.03125 6.21875 C 14.34375 6.570312 13.640625 6.925781 12.921875 7.28125 C 12.378906 7.53125 11.832031 7.78125 11.28125 8.03125 C 10.738281 8.289062 10.179688 8.515625 9.609375 8.703125 C 9.171875 8.867188 8.789062 9.007812 8.46875 9.125 C 8.144531 9.238281 7.8125 9.34375 7.46875 9.4375 C 7.132812 9.53125 6.707031 9.632812 6.1875 9.75 C 5.863281 9.8125 5.546875 9.859375 5.234375 9.890625 C 4.921875 9.921875 4.710938 9.945312 4.609375 9.96875 C 4.460938 9.988281 4.316406 10 4.171875 10 C 4.035156 10 3.90625 10 3.78125 10 Z M 3.78125 10 "/></g></g></g><g fill="#c1a47d" fill-opacity="1"><g transform="translate(135.884041, 58.763465)"><g><path d="M 31.09375 -30.84375 C 31.40625 -30.78125 31.679688 -30.601562 31.921875 -30.3125 C 32.160156 -30.03125 32.28125 -29.765625 32.28125 -29.515625 C 32.238281 -29.117188 32.117188 -28.738281 31.921875 -28.375 C 31.722656 -28.019531 31.476562 -27.695312 31.1875 -27.40625 C 30.894531 -27.082031 30.582031 -26.773438 30.25 -26.484375 C 29.925781 -26.191406 29.597656 -25.898438 29.265625 -25.609375 C 28.671875 -25.054688 28.050781 -24.535156 27.40625 -24.046875 C 26.769531 -23.566406 26.128906 -23.097656 25.484375 -22.640625 C 25.015625 -22.328125 24.546875 -22.023438 24.078125 -21.734375 C 23.617188 -21.453125 23.148438 -21.164062 22.671875 -20.875 C 22.140625 -20.539062 21.617188 -20.210938 21.109375 -19.890625 C 20.597656 -19.578125 20.078125 -19.265625 19.546875 -18.953125 C 18.429688 -18.296875 17.304688 -17.65625 16.171875 -17.03125 C 15.035156 -16.414062 13.878906 -15.847656 12.703125 -15.328125 C 11.691406 -14.878906 10.609375 -14.53125 9.453125 -14.28125 C 9.054688 -14.195312 8.742188 -14.09375 8.515625 -13.96875 C 8.285156 -13.84375 8 -13.582031 7.65625 -13.1875 C 7.445312 -13.03125 7.269531 -12.882812 7.125 -12.75 C 6.976562 -12.613281 6.820312 -12.484375 6.65625 -12.359375 C 6.53125 -12.273438 6.398438 -12.148438 6.265625 -11.984375 C 6.140625 -11.816406 6.023438 -11.679688 5.921875 -11.578125 L -4.640625 -1.015625 C -5.015625 -0.628906 -5.390625 -0.234375 -5.765625 0.171875 C -6.148438 0.578125 -6.53125 0.984375 -6.90625 1.390625 C -6.65625 1.410156 -6.363281 1.40625 -6.03125 1.375 C -5.707031 1.34375 -5.503906 1.316406 -5.421875 1.296875 C -4.347656 1.109375 -3.316406 0.832031 -2.328125 0.46875 C -1.335938 0.113281 -0.3125 -0.289062 0.75 -0.75 C 1.613281 -1.113281 2.347656 -1.457031 2.953125 -1.78125 C 3.566406 -2.101562 4.234375 -2.445312 4.953125 -2.8125 C 5.429688 -3.019531 5.878906 -3.25 6.296875 -3.5 C 6.722656 -3.75 7.164062 -4 7.625 -4.25 C 7.769531 -4.34375 7.929688 -4.453125 8.109375 -4.578125 C 8.296875 -4.703125 8.460938 -4.804688 8.609375 -4.890625 C 9.210938 -5.265625 9.832031 -5.660156 10.46875 -6.078125 C 11.101562 -6.503906 11.710938 -6.945312 12.296875 -7.40625 C 12.441406 -7.507812 12.566406 -7.597656 12.671875 -7.671875 C 12.773438 -7.742188 12.867188 -7.816406 12.953125 -7.890625 C 13.234375 -8.078125 13.394531 -8.085938 13.4375 -7.921875 C 13.4375 -7.828125 13.40625 -7.757812 13.34375 -7.71875 C 13.300781 -7.675781 13.210938 -7.613281 13.078125 -7.53125 C 12.953125 -7.445312 12.878906 -7.394531 12.859375 -7.375 L 12.359375 -7.03125 C 11.773438 -6.570312 11.191406 -6.140625 10.609375 -5.734375 C 10.035156 -5.335938 9.503906 -5.003906 9.015625 -4.734375 C 8.367188 -4.304688 7.757812 -3.929688 7.1875 -3.609375 C 6.625 -3.285156 6.023438 -2.953125 5.390625 -2.609375 C 4.671875 -2.234375 4.023438 -1.90625 3.453125 -1.625 C 2.890625 -1.34375 2.253906 -1.03125 1.546875 -0.6875 C 1.078125 -0.5 0.632812 -0.3125 0.21875 -0.125 C -0.195312 0.0625 -0.628906 0.238281 -1.078125 0.40625 C -1.535156 0.570312 -1.890625 0.703125 -2.140625 0.796875 C -2.390625 0.898438 -2.757812 1.015625 -3.25 1.140625 C -3.457031 1.203125 -3.660156 1.257812 -3.859375 1.3125 C -4.054688 1.363281 -4.304688 1.421875 -4.609375 1.484375 C -5.128906 1.609375 -5.609375 1.679688 -6.046875 1.703125 C -6.492188 1.722656 -6.875 1.742188 -7.1875 1.765625 C -7.082031 2.035156 -6.988281 2.367188 -6.90625 2.765625 C -6.820312 3.171875 -6.78125 3.613281 -6.78125 4.09375 C -6.78125 4.332031 -6.789062 4.578125 -6.8125 4.828125 C -6.832031 5.078125 -6.882812 5.328125 -6.96875 5.578125 C -7.21875 6.398438 -7.582031 7.207031 -8.0625 8 C -8.550781 8.800781 -9.0625 9.539062 -9.59375 10.21875 C -10.132812 10.90625 -10.613281 11.492188 -11.03125 11.984375 C -11.3125 12.273438 -11.644531 12.640625 -12.03125 13.078125 C -12.414062 13.523438 -12.796875 13.957031 -13.171875 14.375 C -13.554688 14.800781 -13.882812 15.160156 -14.15625 15.453125 C -14.957031 16.316406 -15.84375 17.019531 -16.8125 17.5625 C -17.082031 17.726562 -17.378906 17.878906 -17.703125 18.015625 C -18.023438 18.148438 -18.335938 18.257812 -18.640625 18.34375 C -18.722656 18.363281 -18.859375 18.375 -19.046875 18.375 C -19.441406 18.375 -19.8125 18.304688 -20.15625 18.171875 C -20.507812 18.035156 -20.75 17.882812 -20.875 17.71875 C -21.019531 17.570312 -21.09375 17.332031 -21.09375 17 C -21.03125 16.320312 -20.863281 15.710938 -20.59375 15.171875 C -20.320312 14.640625 -20.023438 14.113281 -19.703125 13.59375 C -19.304688 12.9375 -18.882812 12.296875 -18.4375 11.671875 C -18 11.054688 -17.550781 10.457031 -17.09375 9.875 C -16.90625 9.613281 -16.691406 9.363281 -16.453125 9.125 C -16.222656 8.882812 -16.003906 8.640625 -15.796875 8.390625 C -15.441406 7.941406 -15.066406 7.507812 -14.671875 7.09375 C -14.285156 6.675781 -13.90625 6.265625 -13.53125 5.859375 C -13.507812 5.835938 -13.367188 5.691406 -13.109375 5.421875 C -12.859375 5.148438 -12.554688 4.816406 -12.203125 4.421875 C -11.847656 4.035156 -11.488281 3.648438 -11.125 3.265625 C -10.769531 2.878906 -10.460938 2.550781 -10.203125 2.28125 C -9.941406 2.019531 -9.800781 1.890625 -9.78125 1.890625 L -7.984375 -0.0625 C -7.617188 -0.4375 -7.25 -0.800781 -6.875 -1.15625 C -6.5 -1.519531 -6.140625 -1.890625 -5.796875 -2.265625 C -5.066406 -3.085938 -4.3125 -3.875 -3.53125 -4.625 C -2.75 -5.382812 -1.992188 -6.164062 -1.265625 -6.96875 L 1.046875 -9.421875 L 2.421875 -10.71875 C 2.460938 -10.757812 2.492188 -10.800781 2.515625 -10.84375 C 2.535156 -10.882812 2.554688 -10.914062 2.578125 -10.9375 C 2.710938 -11.0625 2.96875 -11.304688 3.34375 -11.671875 C 3.71875 -12.046875 4.15625 -12.472656 4.65625 -12.953125 C 5.164062 -13.441406 5.675781 -13.9375 6.1875 -14.4375 C 6.707031 -14.945312 7.171875 -15.40625 7.578125 -15.8125 C 7.992188 -16.21875 8.304688 -16.519531 8.515625 -16.71875 C 8.847656 -17.007812 9.179688 -17.300781 9.515625 -17.59375 C 9.859375 -17.882812 10.195312 -18.171875 10.53125 -18.453125 C 10.757812 -18.660156 11 -18.859375 11.25 -19.046875 C 11.507812 -19.234375 11.753906 -19.429688 11.984375 -19.640625 C 12.648438 -20.273438 13.347656 -20.867188 14.078125 -21.421875 C 14.804688 -21.984375 15.523438 -22.523438 16.234375 -23.046875 C 16.929688 -23.578125 17.632812 -24.085938 18.34375 -24.578125 C 19.0625 -25.066406 19.78125 -25.546875 20.5 -26.015625 C 21.375 -26.597656 22.253906 -27.171875 23.140625 -27.734375 C 24.023438 -28.304688 24.929688 -28.847656 25.859375 -29.359375 C 26.460938 -29.691406 27.078125 -29.976562 27.703125 -30.21875 C 28.335938 -30.457031 28.984375 -30.65625 29.640625 -30.8125 C 29.742188 -30.851562 29.859375 -30.875 29.984375 -30.875 C 30.109375 -30.875 30.234375 -30.875 30.359375 -30.875 C 30.484375 -30.875 30.609375 -30.875 30.734375 -30.875 C 30.867188 -30.875 30.988281 -30.863281 31.09375 -30.84375 Z M 30.71875 -27.46875 C 30.84375 -27.59375 31.003906 -27.800781 31.203125 -28.09375 C 31.398438 -28.382812 31.5 -28.671875 31.5 -28.953125 C 31.5 -29.160156 31.425781 -29.328125 31.28125 -29.453125 C 31.113281 -29.535156 30.914062 -29.578125 30.6875 -29.578125 C 30.59375 -29.578125 30.503906 -29.570312 30.421875 -29.5625 C 30.335938 -29.550781 30.242188 -29.535156 30.140625 -29.515625 C 29.492188 -29.328125 28.875 -29.078125 28.28125 -28.765625 C 27.695312 -28.460938 27.117188 -28.144531 26.546875 -27.8125 C 25.722656 -27.320312 24.910156 -26.816406 24.109375 -26.296875 C 23.316406 -25.773438 22.519531 -25.238281 21.71875 -24.6875 C 20.945312 -24.164062 20.171875 -23.617188 19.390625 -23.046875 C 18.609375 -22.484375 17.832031 -21.914062 17.0625 -21.34375 C 16.789062 -21.132812 16.503906 -20.925781 16.203125 -20.71875 C 15.910156 -20.507812 15.628906 -20.285156 15.359375 -20.046875 C 15.035156 -19.796875 14.726562 -19.539062 14.4375 -19.28125 C 14.144531 -19.019531 13.851562 -18.765625 13.5625 -18.515625 C 13.175781 -18.210938 12.796875 -17.90625 12.421875 -17.59375 C 12.046875 -17.28125 11.675781 -16.953125 11.3125 -16.609375 C 11.101562 -16.398438 10.890625 -16.179688 10.671875 -15.953125 C 10.453125 -15.722656 10.207031 -15.523438 9.9375 -15.359375 C 9.875 -15.335938 9.757812 -15.238281 9.59375 -15.0625 C 9.4375 -14.894531 9.335938 -14.78125 9.296875 -14.71875 C 9.535156 -14.695312 9.859375 -14.742188 10.265625 -14.859375 C 10.671875 -14.984375 10.976562 -15.085938 11.1875 -15.171875 C 12.113281 -15.523438 13.03125 -15.894531 13.9375 -16.28125 C 14.84375 -16.675781 15.710938 -17.125 16.546875 -17.625 C 16.972656 -17.875 17.382812 -18.113281 17.78125 -18.34375 C 18.175781 -18.582031 18.578125 -18.816406 18.984375 -19.046875 C 19.710938 -19.503906 20.453125 -19.953125 21.203125 -20.390625 C 21.953125 -20.835938 22.691406 -21.28125 23.421875 -21.71875 C 23.910156 -22.019531 24.382812 -22.332031 24.84375 -22.65625 C 25.3125 -22.976562 25.773438 -23.3125 26.234375 -23.65625 C 27.035156 -24.238281 27.816406 -24.847656 28.578125 -25.484375 C 29.347656 -26.128906 30.0625 -26.789062 30.71875 -27.46875 Z M -7.125 4.390625 C -7.082031 4.046875 -7.109375 3.640625 -7.203125 3.171875 C -7.296875 2.710938 -7.394531 2.316406 -7.5 1.984375 L -8.609375 3.15625 C -8.648438 3.195312 -8.742188 3.304688 -8.890625 3.484375 C -9.035156 3.660156 -9.203125 3.84375 -9.390625 4.03125 L -9.6875 4.453125 C -9.707031 4.472656 -9.8125 4.578125 -10 4.765625 C -10.1875 4.953125 -10.375 5.148438 -10.5625 5.359375 C -10.75 5.566406 -10.84375 5.703125 -10.84375 5.765625 L -10.84375 5.703125 C -11.007812 5.847656 -11.1875 6.023438 -11.375 6.234375 C -11.570312 6.453125 -11.722656 6.613281 -11.828125 6.71875 C -12.285156 7.175781 -12.726562 7.660156 -13.15625 8.171875 C -13.59375 8.691406 -14.019531 9.195312 -14.4375 9.6875 C -14.925781 10.269531 -15.410156 10.84375 -15.890625 11.40625 C -16.367188 11.976562 -16.84375 12.570312 -17.3125 13.1875 C -17.875 13.894531 -18.390625 14.617188 -18.859375 15.359375 C -19.003906 15.566406 -19.140625 15.796875 -19.265625 16.046875 C -19.390625 16.296875 -19.503906 16.539062 -19.609375 16.78125 C -19.691406 16.988281 -19.734375 17.207031 -19.734375 17.4375 C -19.734375 17.664062 -19.671875 17.832031 -19.546875 17.9375 C -19.441406 18.019531 -19.304688 18.0625 -19.140625 18.0625 C -18.972656 18.0625 -18.8125 18.035156 -18.65625 17.984375 C -18.5 17.929688 -18.363281 17.882812 -18.25 17.84375 C -17.769531 17.675781 -17.28125 17.441406 -16.78125 17.140625 C -16.289062 16.835938 -15.859375 16.535156 -15.484375 16.234375 C -14.804688 15.671875 -14.085938 14.96875 -13.328125 14.125 C -12.578125 13.28125 -11.90625 12.503906 -11.3125 11.796875 C -10.394531 10.660156 -9.664062 9.703125 -9.125 8.921875 C -8.59375 8.140625 -8.1875 7.484375 -7.90625 6.953125 C -7.632812 6.421875 -7.453125 5.953125 -7.359375 5.546875 C -7.265625 5.148438 -7.1875 4.765625 -7.125 4.390625 Z M -7.125 4.390625 "/></g></g></g><g fill="#c1a47d" fill-opacity="1"><g transform="translate(68.09872, 97.358689)"><g><path d="M 11.046875 -14.640625 L 11.296875 -10.984375 L 10.90625 -10.90625 C 10.6875 -12.019531 10.207031 -12.820312 9.46875 -13.3125 C 8.726562 -13.8125 7.765625 -14.0625 6.578125 -14.0625 C 6.347656 -14.0625 6.03125 -14.054688 5.625 -14.046875 C 5.21875 -14.046875 4.769531 -14.039062 4.28125 -14.03125 L 4.28125 -7.859375 L 6.0625 -7.890625 C 6.8125 -7.910156 7.398438 -7.992188 7.828125 -8.140625 C 8.253906 -8.296875 8.570312 -8.515625 8.78125 -8.796875 C 9 -9.078125 9.148438 -9.40625 9.234375 -9.78125 L 9.59375 -9.78125 L 9.53125 -5.109375 L 9.15625 -5.109375 C 9.082031 -5.515625 8.953125 -5.875 8.765625 -6.1875 C 8.578125 -6.5 8.269531 -6.753906 7.84375 -6.953125 C 7.425781 -7.148438 6.832031 -7.253906 6.0625 -7.265625 L 4.28125 -7.3125 L 4.28125 -3.5 C 4.28125 -2.863281 4.304688 -2.34375 4.359375 -1.9375 C 4.421875 -1.539062 4.570312 -1.222656 4.8125 -0.984375 C 5.050781 -0.742188 5.441406 -0.554688 5.984375 -0.421875 L 5.984375 0 L 0.734375 0 L 0.734375 -0.421875 C 1.296875 -0.554688 1.6875 -0.742188 1.90625 -0.984375 C 2.132812 -1.234375 2.269531 -1.5625 2.3125 -1.96875 C 2.363281 -2.375 2.390625 -2.882812 2.390625 -3.5 L 2.375 -12.15625 C 2.34375 -12.726562 2.222656 -13.171875 2.015625 -13.484375 C 1.816406 -13.804688 1.390625 -14.050781 0.734375 -14.21875 L 0.734375 -14.640625 Z M 11.046875 -14.640625 "/></g></g></g><g fill="#c1a47d" fill-opacity="1"><g transform="translate(79.85877, 97.358689)"><g><path d="M 2.484375 -3.5 L 2.484375 -11.125 C 2.484375 -11.769531 2.453125 -12.289062 2.390625 -12.6875 C 2.335938 -13.09375 2.191406 -13.410156 1.953125 -13.640625 C 1.722656 -13.878906 1.332031 -14.070312 0.78125 -14.21875 L 0.78125 -14.640625 L 6.03125 -14.640625 L 6.03125 -14.21875 C 5.476562 -14.070312 5.085938 -13.875 4.859375 -13.625 C 4.628906 -13.382812 4.488281 -13.066406 4.4375 -12.671875 C 4.394531 -12.273438 4.375 -11.757812 4.375 -11.125 L 4.375 -3.5 C 4.375 -2.863281 4.398438 -2.34375 4.453125 -1.9375 C 4.503906 -1.539062 4.648438 -1.222656 4.890625 -0.984375 C 5.128906 -0.742188 5.519531 -0.554688 6.0625 -0.421875 L 6.0625 0 L 0.8125 0 L 0.8125 -0.421875 C 1.375 -0.554688 1.765625 -0.742188 1.984375 -0.984375 C 2.210938 -1.234375 2.351562 -1.5625 2.40625 -1.96875 C 2.457031 -2.375 2.484375 -2.882812 2.484375 -3.5 Z M 2.484375 -3.5 "/></g></g></g><g fill="#c1a47d" fill-opacity="1"><g transform="translate(86.452796, 97.358689)"><g><path d="M 8.46875 -8.015625 L 11.765625 -3.09375 C 12.179688 -2.46875 12.519531 -1.976562 12.78125 -1.625 C 13.050781 -1.28125 13.316406 -1.019531 13.578125 -0.84375 C 13.835938 -0.675781 14.15625 -0.535156 14.53125 -0.421875 L 14.53125 0 L 9.328125 0 L 9.328125 -0.421875 C 9.816406 -0.628906 10.101562 -0.910156 10.1875 -1.265625 C 10.28125 -1.628906 10.144531 -2.066406 9.78125 -2.578125 L 6.9375 -6.84375 L 5.75 -5.140625 C 5.019531 -4.066406 4.5625 -3.195312 4.375 -2.53125 C 4.195312 -1.875 4.257812 -1.378906 4.5625 -1.046875 C 4.863281 -0.722656 5.375 -0.515625 6.09375 -0.421875 L 6.09375 0 L 0.546875 0 L 0.546875 -0.421875 C 0.859375 -0.472656 1.132812 -0.566406 1.375 -0.703125 C 1.625 -0.835938 1.894531 -1.0625 2.1875 -1.375 C 2.488281 -1.6875 2.851562 -2.132812 3.28125 -2.71875 C 3.707031 -3.300781 4.257812 -4.0625 4.9375 -5 L 6.59375 -7.34375 L 3.78125 -11.546875 C 3.363281 -12.179688 3.019531 -12.671875 2.75 -13.015625 C 2.488281 -13.359375 2.226562 -13.613281 1.96875 -13.78125 C 1.71875 -13.957031 1.398438 -14.101562 1.015625 -14.21875 L 1.015625 -14.640625 L 6.21875 -14.640625 L 6.21875 -14.21875 C 5.738281 -14.007812 5.453125 -13.726562 5.359375 -13.375 C 5.273438 -13.03125 5.40625 -12.585938 5.75 -12.046875 L 8.125 -8.53125 L 8.8125 -9.484375 C 9.582031 -10.554688 10.050781 -11.421875 10.21875 -12.078125 C 10.394531 -12.734375 10.328125 -13.226562 10.015625 -13.5625 C 9.710938 -13.894531 9.203125 -14.113281 8.484375 -14.21875 L 8.484375 -14.640625 L 14.03125 -14.640625 L 14.03125 -14.21875 C 13.71875 -14.164062 13.4375 -14.070312 13.1875 -13.9375 C 12.945312 -13.800781 12.679688 -13.570312 12.390625 -13.25 C 12.109375 -12.925781 11.75 -12.476562 11.3125 -11.90625 C 10.882812 -11.332031 10.328125 -10.578125 9.640625 -9.640625 Z M 8.46875 -8.015625 "/></g></g></g><g fill="#c1a47d" fill-opacity="1"><g transform="translate(101.110855, 97.358689)"><g/></g></g><g fill="#c1a47d" fill-opacity="1"><g transform="translate(106.654876, 97.358689)"><g><path d="M 11.046875 -14.640625 L 11.296875 -10.984375 L 10.90625 -10.90625 C 10.6875 -12.019531 10.207031 -12.820312 9.46875 -13.3125 C 8.726562 -13.8125 7.765625 -14.0625 6.578125 -14.0625 C 6.347656 -14.0625 6.03125 -14.054688 5.625 -14.046875 C 5.21875 -14.046875 4.769531 -14.039062 4.28125 -14.03125 L 4.28125 -7.859375 L 6.0625 -7.890625 C 6.8125 -7.910156 7.398438 -7.992188 7.828125 -8.140625 C 8.253906 -8.296875 8.570312 -8.515625 8.78125 -8.796875 C 9 -9.078125 9.148438 -9.40625 9.234375 -9.78125 L 9.59375 -9.78125 L 9.53125 -5.109375 L 9.15625 -5.109375 C 9.082031 -5.515625 8.953125 -5.875 8.765625 -6.1875 C 8.578125 -6.5 8.269531 -6.753906 7.84375 -6.953125 C 7.425781 -7.148438 6.832031 -7.253906 6.0625 -7.265625 L 4.28125 -7.3125 L 4.28125 -3.5 C 4.28125 -2.863281 4.304688 -2.34375 4.359375 -1.9375 C 4.421875 -1.539062 4.570312 -1.222656 4.8125 -0.984375 C 5.050781 -0.742188 5.441406 -0.554688 5.984375 -0.421875 L 5.984375 0 L 0.734375 0 L 0.734375 -0.421875 C 1.296875 -0.554688 1.6875 -0.742188 1.90625 -0.984375 C 2.132812 -1.234375 2.269531 -1.5625 2.3125 -1.96875 C 2.363281 -2.375 2.390625 -2.882812 2.390625 -3.5 L 2.375 -12.15625 C 2.34375 -12.726562 2.222656 -13.171875 2.015625 -13.484375 C 1.816406 -13.804688 1.390625 -14.050781 0.734375 -14.21875 L 0.734375 -14.640625 Z M 11.046875 -14.640625 "/></g></g></g><g fill="#c1a47d" fill-opacity="1"><g transform="translate(118.414927, 97.358689)"><g><path d="M 7.921875 0.34375 C 6.367188 0.34375 5.164062 0.0546875 4.3125 -0.515625 C 3.457031 -1.097656 2.863281 -1.941406 2.53125 -3.046875 C 2.195312 -4.160156 2.03125 -5.523438 2.03125 -7.140625 L 2.125 -11.125 C 2.125 -11.769531 2.09375 -12.289062 2.03125 -12.6875 C 1.976562 -13.09375 1.835938 -13.410156 1.609375 -13.640625 C 1.378906 -13.878906 0.984375 -14.070312 0.421875 -14.21875 L 0.421875 -14.640625 L 5.671875 -14.640625 L 5.671875 -14.21875 C 5.117188 -14.070312 4.726562 -13.875 4.5 -13.625 C 4.269531 -13.382812 4.128906 -13.066406 4.078125 -12.671875 C 4.035156 -12.273438 4.015625 -11.757812 4.015625 -11.125 L 4.015625 -6.84375 C 4.015625 -5.425781 4.128906 -4.257812 4.359375 -3.34375 C 4.585938 -2.425781 5.03125 -1.75 5.6875 -1.3125 C 6.34375 -0.875 7.3125 -0.65625 8.59375 -0.65625 C 10 -0.65625 11.054688 -1.109375 11.765625 -2.015625 C 12.472656 -2.921875 12.859375 -4.140625 12.921875 -5.671875 C 12.929688 -5.960938 12.929688 -6.273438 12.921875 -6.609375 C 12.921875 -6.953125 12.90625 -7.316406 12.875 -7.703125 C 12.800781 -9.242188 12.671875 -10.460938 12.484375 -11.359375 C 12.304688 -12.253906 12.023438 -12.914062 11.640625 -13.34375 C 11.253906 -13.78125 10.707031 -14.070312 10 -14.21875 L 10 -14.640625 L 15.0625 -14.640625 L 15.0625 -14.21875 C 14.71875 -14.113281 14.445312 -13.957031 14.25 -13.75 C 14.0625 -13.539062 13.914062 -13.207031 13.8125 -12.75 C 13.71875 -12.300781 13.648438 -11.640625 13.609375 -10.765625 C 13.578125 -9.898438 13.554688 -8.753906 13.546875 -7.328125 C 13.535156 -6.179688 13.492188 -5.242188 13.421875 -4.515625 C 13.347656 -3.796875 13.191406 -3.148438 12.953125 -2.578125 C 12.578125 -1.679688 11.960938 -0.96875 11.109375 -0.4375 C 10.265625 0.0820312 9.203125 0.34375 7.921875 0.34375 Z M 7.921875 0.34375 "/></g></g></g><g fill="#c1a47d" fill-opacity="1"><g transform="translate(133.492986, 97.358689)"><g><path d="M 4.71875 0.296875 C 4.082031 0.296875 3.453125 0.253906 2.828125 0.171875 C 2.203125 0.0976562 1.570312 -0.0234375 0.9375 -0.203125 L 0.625 -4.4375 L 1.046875 -4.5 C 1.410156 -3.09375 1.988281 -2.0625 2.78125 -1.40625 C 3.582031 -0.75 4.546875 -0.421875 5.671875 -0.421875 C 6.242188 -0.421875 6.769531 -0.53125 7.25 -0.75 C 7.738281 -0.976562 8.125 -1.289062 8.40625 -1.6875 C 8.695312 -2.082031 8.84375 -2.550781 8.84375 -3.09375 C 8.84375 -3.84375 8.675781 -4.421875 8.34375 -4.828125 C 8.019531 -5.242188 7.566406 -5.578125 6.984375 -5.828125 C 6.410156 -6.085938 5.753906 -6.34375 5.015625 -6.59375 C 3.753906 -7.039062 2.796875 -7.585938 2.140625 -8.234375 C 1.492188 -8.878906 1.171875 -9.722656 1.171875 -10.765625 C 1.171875 -11.535156 1.382812 -12.234375 1.8125 -12.859375 C 2.238281 -13.484375 2.820312 -13.976562 3.5625 -14.34375 C 4.3125 -14.707031 5.164062 -14.890625 6.125 -14.890625 C 6.75 -14.890625 7.335938 -14.851562 7.890625 -14.78125 C 8.453125 -14.707031 9.007812 -14.601562 9.5625 -14.46875 L 9.90625 -10.546875 L 9.515625 -10.484375 C 9.117188 -11.679688 8.59375 -12.585938 7.9375 -13.203125 C 7.28125 -13.828125 6.429688 -14.140625 5.390625 -14.140625 C 4.578125 -14.140625 3.894531 -13.921875 3.34375 -13.484375 C 2.789062 -13.046875 2.515625 -12.460938 2.515625 -11.734375 C 2.515625 -11.078125 2.722656 -10.53125 3.140625 -10.09375 C 3.566406 -9.664062 4.132812 -9.296875 4.84375 -8.984375 C 5.550781 -8.679688 6.320312 -8.378906 7.15625 -8.078125 C 8.238281 -7.703125 9.046875 -7.21875 9.578125 -6.625 C 10.109375 -6.039062 10.375 -5.257812 10.375 -4.28125 C 10.375 -3.414062 10.148438 -2.632812 9.703125 -1.9375 C 9.253906 -1.25 8.601562 -0.703125 7.75 -0.296875 C 6.90625 0.0976562 5.894531 0.296875 4.71875 0.296875 Z M 4.71875 0.296875 "/></g></g></g><g fill="#c1a47d" fill-opacity="1"><g transform="translate(144.30803, 97.358689)"><g><path d="M 2.484375 -3.5 L 2.484375 -11.125 C 2.484375 -11.769531 2.453125 -12.289062 2.390625 -12.6875 C 2.335938 -13.09375 2.191406 -13.410156 1.953125 -13.640625 C 1.722656 -13.878906 1.332031 -14.070312 0.78125 -14.21875 L 0.78125 -14.640625 L 6.03125 -14.640625 L 6.03125 -14.21875 C 5.476562 -14.070312 5.085938 -13.875 4.859375 -13.625 C 4.628906 -13.382812 4.488281 -13.066406 4.4375 -12.671875 C 4.394531 -12.273438 4.375 -11.757812 4.375 -11.125 L 4.375 -3.5 C 4.375 -2.863281 4.398438 -2.34375 4.453125 -1.9375 C 4.503906 -1.539062 4.648438 -1.222656 4.890625 -0.984375 C 5.128906 -0.742188 5.519531 -0.554688 6.0625 -0.421875 L 6.0625 0 L 0.8125 0 L 0.8125 -0.421875 C 1.375 -0.554688 1.765625 -0.742188 1.984375 -0.984375 C 2.210938 -1.234375 2.351562 -1.5625 2.40625 -1.96875 C 2.457031 -2.375 2.484375 -2.882812 2.484375 -3.5 Z M 2.484375 -3.5 "/></g></g></g><g fill="#c1a47d" fill-opacity="1"><g transform="translate(150.902058, 97.358689)"><g><path d="M 8.40625 0.34375 C 7.3125 0.34375 6.3125 0.144531 5.40625 -0.25 C 4.5 -0.65625 3.710938 -1.210938 3.046875 -1.921875 C 2.390625 -2.628906 1.878906 -3.445312 1.515625 -4.375 C 1.148438 -5.3125 0.96875 -6.300781 0.96875 -7.34375 C 0.96875 -8.414062 1.160156 -9.410156 1.546875 -10.328125 C 1.929688 -11.253906 2.460938 -12.0625 3.140625 -12.75 C 3.828125 -13.445312 4.625 -13.988281 5.53125 -14.375 C 6.4375 -14.769531 7.398438 -14.96875 8.421875 -14.96875 C 9.523438 -14.96875 10.53125 -14.773438 11.4375 -14.390625 C 12.351562 -14.003906 13.144531 -13.460938 13.8125 -12.765625 C 14.476562 -12.078125 14.988281 -11.273438 15.34375 -10.359375 C 15.695312 -9.441406 15.875 -8.445312 15.875 -7.375 C 15.875 -6.289062 15.679688 -5.28125 15.296875 -4.34375 C 14.910156 -3.40625 14.367188 -2.585938 13.671875 -1.890625 C 12.984375 -1.191406 12.191406 -0.644531 11.296875 -0.25 C 10.398438 0.144531 9.4375 0.34375 8.40625 0.34375 Z M 8.890625 -0.265625 C 9.921875 -0.316406 10.796875 -0.640625 11.515625 -1.234375 C 12.234375 -1.828125 12.773438 -2.632812 13.140625 -3.65625 C 13.503906 -4.6875 13.660156 -5.863281 13.609375 -7.1875 C 13.566406 -8.632812 13.300781 -9.90625 12.8125 -11 C 12.320312 -12.09375 11.660156 -12.9375 10.828125 -13.53125 C 9.992188 -14.125 9.03125 -14.398438 7.9375 -14.359375 C 6.914062 -14.335938 6.039062 -14.035156 5.3125 -13.453125 C 4.59375 -12.867188 4.050781 -12.078125 3.6875 -11.078125 C 3.332031 -10.078125 3.175781 -8.929688 3.21875 -7.640625 C 3.269531 -6.160156 3.539062 -4.859375 4.03125 -3.734375 C 4.519531 -2.617188 5.179688 -1.753906 6.015625 -1.140625 C 6.847656 -0.535156 7.804688 -0.242188 8.890625 -0.265625 Z M 8.890625 -0.265625 "/></g></g></g><g fill="#c1a47d" fill-opacity="1"><g transform="translate(167.450128, 97.358689)"><g><path d="M 10.875 -14.21875 L 10.875 -14.640625 L 15.890625 -14.640625 L 15.890625 -14.21875 C 15.554688 -14.113281 15.289062 -13.957031 15.09375 -13.75 C 14.90625 -13.539062 14.757812 -13.191406 14.65625 -12.703125 C 14.5625 -12.222656 14.492188 -11.523438 14.453125 -10.609375 C 14.410156 -9.691406 14.378906 -8.476562 14.359375 -6.96875 L 14.328125 -2.875 C 14.304688 -2.207031 14.304688 -1.617188 14.328125 -1.109375 C 14.347656 -0.597656 14.367188 -0.171875 14.390625 0.171875 L 13.390625 0.171875 C 13.253906 -0.0546875 13.066406 -0.3125 12.828125 -0.59375 C 12.585938 -0.875 12.300781 -1.207031 11.96875 -1.59375 L 2.734375 -12.46875 C 2.734375 -11.113281 2.75 -9.894531 2.78125 -8.8125 C 2.8125 -7.726562 2.84375 -6.679688 2.875 -5.671875 C 2.914062 -4.492188 3.03125 -3.539062 3.21875 -2.8125 C 3.40625 -2.082031 3.695312 -1.53125 4.09375 -1.15625 C 4.488281 -0.78125 5 -0.535156 5.625 -0.421875 L 5.625 0 L 0.53125 0 L 0.53125 -0.421875 C 0.789062 -0.472656 1.015625 -0.582031 1.203125 -0.75 C 1.390625 -0.925781 1.539062 -1.207031 1.65625 -1.59375 C 1.78125 -1.988281 1.875 -2.539062 1.9375 -3.25 C 2 -3.957031 2.039062 -4.875 2.0625 -6 L 2.125 -12.265625 C 2.132812 -12.660156 2.109375 -12.976562 2.046875 -13.21875 C 1.992188 -13.46875 1.867188 -13.671875 1.671875 -13.828125 C 1.484375 -13.984375 1.171875 -14.113281 0.734375 -14.21875 L 0.734375 -14.640625 L 3.859375 -14.640625 C 3.972656 -14.390625 4.109375 -14.140625 4.265625 -13.890625 C 4.429688 -13.648438 4.617188 -13.398438 4.828125 -13.140625 L 13.71875 -2.640625 L 13.609375 -7 C 13.578125 -8.320312 13.515625 -9.425781 13.421875 -10.3125 C 13.335938 -11.195312 13.195312 -11.90625 13 -12.4375 C 12.8125 -12.96875 12.546875 -13.367188 12.203125 -13.640625 C 11.867188 -13.921875 11.425781 -14.113281 10.875 -14.21875 Z M 10.875 -14.21875 "/></g></g></g><g fill="#c1a47d" fill-opacity="1"><g transform="translate(80.996613, 108.624463)"><g><path d="M 2.015625 0.078125 C 1.660156 0.078125 1.347656 0.00390625 1.078125 -0.140625 C 0.804688 -0.296875 0.59375 -0.507812 0.4375 -0.78125 C 0.28125 -1.050781 0.203125 -1.367188 0.203125 -1.734375 C 0.203125 -2.097656 0.28125 -2.414062 0.4375 -2.6875 C 0.601562 -2.957031 0.828125 -3.171875 1.109375 -3.328125 C 1.398438 -3.484375 1.734375 -3.5625 2.109375 -3.5625 C 2.265625 -3.5625 2.429688 -3.546875 2.609375 -3.515625 C 2.796875 -3.484375 2.976562 -3.4375 3.15625 -3.375 L 3.25 -2.40625 L 3.15625 -2.375 C 3.03125 -2.6875 2.867188 -2.9375 2.671875 -3.125 C 2.484375 -3.3125 2.253906 -3.40625 1.984375 -3.40625 C 1.585938 -3.40625 1.28125 -3.265625 1.0625 -2.984375 C 0.84375 -2.703125 0.734375 -2.316406 0.734375 -1.828125 C 0.734375 -1.492188 0.785156 -1.191406 0.890625 -0.921875 C 1.003906 -0.660156 1.164062 -0.453125 1.375 -0.296875 C 1.582031 -0.140625 1.820312 -0.0625 2.09375 -0.0625 C 2.363281 -0.0625 2.59375 -0.144531 2.78125 -0.3125 C 2.976562 -0.476562 3.15625 -0.695312 3.3125 -0.96875 L 3.40625 -0.9375 L 3.109375 -0.078125 C 2.921875 -0.0234375 2.742188 0.0078125 2.578125 0.03125 C 2.410156 0.0625 2.222656 0.078125 2.015625 0.078125 Z M 2.015625 0.078125 "/></g></g></g><g fill="#c1a47d" fill-opacity="1"><g transform="translate(87.181609, 108.624463)"><g><path d="M 2 0.078125 C 1.738281 0.078125 1.5 0.03125 1.28125 -0.0625 C 1.070312 -0.15625 0.882812 -0.285156 0.71875 -0.453125 C 0.5625 -0.617188 0.441406 -0.8125 0.359375 -1.03125 C 0.273438 -1.257812 0.234375 -1.5 0.234375 -1.75 C 0.234375 -2 0.273438 -2.234375 0.359375 -2.453125 C 0.453125 -2.679688 0.582031 -2.875 0.75 -3.03125 C 0.914062 -3.195312 1.101562 -3.328125 1.3125 -3.421875 C 1.53125 -3.515625 1.757812 -3.5625 2 -3.5625 C 2.269531 -3.5625 2.507812 -3.515625 2.71875 -3.421875 C 2.9375 -3.335938 3.125 -3.210938 3.28125 -3.046875 C 3.445312 -2.878906 3.570312 -2.6875 3.65625 -2.46875 C 3.738281 -2.25 3.78125 -2.007812 3.78125 -1.75 C 3.78125 -1.5 3.734375 -1.257812 3.640625 -1.03125 C 3.546875 -0.8125 3.414062 -0.617188 3.25 -0.453125 C 3.09375 -0.285156 2.90625 -0.15625 2.6875 -0.0625 C 2.476562 0.03125 2.25 0.078125 2 0.078125 Z M 2.109375 -0.0625 C 2.359375 -0.0703125 2.566406 -0.144531 2.734375 -0.28125 C 2.910156 -0.425781 3.039062 -0.617188 3.125 -0.859375 C 3.21875 -1.109375 3.253906 -1.390625 3.234375 -1.703125 C 3.222656 -2.054688 3.160156 -2.363281 3.046875 -2.625 C 2.929688 -2.882812 2.773438 -3.082031 2.578125 -3.21875 C 2.378906 -3.363281 2.148438 -3.429688 1.890625 -3.421875 C 1.648438 -3.410156 1.441406 -3.335938 1.265625 -3.203125 C 1.097656 -3.066406 0.96875 -2.878906 0.875 -2.640625 C 0.789062 -2.398438 0.753906 -2.125 0.765625 -1.8125 C 0.773438 -1.46875 0.835938 -1.160156 0.953125 -0.890625 C 1.078125 -0.617188 1.238281 -0.410156 1.4375 -0.265625 C 1.632812 -0.128906 1.859375 -0.0625 2.109375 -0.0625 Z M 2.109375 -0.0625 "/></g></g></g><g fill="#c1a47d" fill-opacity="1"><g transform="translate(93.826604, 108.624463)"><g><path d="M 2.59375 -3.390625 L 2.59375 -3.484375 L 3.78125 -3.484375 L 3.78125 -3.390625 C 3.707031 -3.359375 3.644531 -3.316406 3.59375 -3.265625 C 3.550781 -3.222656 3.515625 -3.144531 3.484375 -3.03125 C 3.460938 -2.914062 3.445312 -2.75 3.4375 -2.53125 C 3.425781 -2.3125 3.421875 -2.019531 3.421875 -1.65625 L 3.40625 -0.6875 C 3.40625 -0.519531 3.40625 -0.375 3.40625 -0.25 C 3.414062 -0.132812 3.421875 -0.0351562 3.421875 0.046875 L 3.1875 0.046875 C 3.15625 -0.015625 3.109375 -0.078125 3.046875 -0.140625 C 2.992188 -0.203125 2.925781 -0.28125 2.84375 -0.375 L 0.65625 -2.96875 C 0.65625 -2.644531 0.65625 -2.351562 0.65625 -2.09375 C 0.664062 -1.832031 0.675781 -1.582031 0.6875 -1.34375 C 0.695312 -1.070312 0.722656 -0.847656 0.765625 -0.671875 C 0.804688 -0.492188 0.875 -0.359375 0.96875 -0.265625 C 1.0625 -0.179688 1.1875 -0.125 1.34375 -0.09375 L 1.34375 0 L 0.125 0 L 0.125 -0.09375 C 0.1875 -0.113281 0.238281 -0.140625 0.28125 -0.171875 C 0.332031 -0.210938 0.367188 -0.28125 0.390625 -0.375 C 0.421875 -0.46875 0.441406 -0.597656 0.453125 -0.765625 C 0.472656 -0.941406 0.484375 -1.164062 0.484375 -1.4375 L 0.5 -2.921875 C 0.507812 -3.015625 0.503906 -3.085938 0.484375 -3.140625 C 0.472656 -3.203125 0.441406 -3.25 0.390625 -3.28125 C 0.347656 -3.320312 0.273438 -3.359375 0.171875 -3.390625 L 0.171875 -3.484375 L 0.921875 -3.484375 C 0.941406 -3.421875 0.972656 -3.359375 1.015625 -3.296875 C 1.054688 -3.242188 1.101562 -3.1875 1.15625 -3.125 L 3.265625 -0.625 L 3.234375 -1.671875 C 3.234375 -1.984375 3.222656 -2.242188 3.203125 -2.453125 C 3.179688 -2.660156 3.144531 -2.828125 3.09375 -2.953125 C 3.050781 -3.085938 2.988281 -3.1875 2.90625 -3.25 C 2.820312 -3.3125 2.71875 -3.359375 2.59375 -3.390625 Z M 2.59375 -3.390625 "/></g></g></g><g fill="#c1a47d" fill-opacity="1"><g transform="translate(100.371598, 108.624463)"><g><path d="M 1.125 0.0625 C 0.96875 0.0625 0.816406 0.0507812 0.671875 0.03125 C 0.523438 0.0195312 0.375 -0.00390625 0.21875 -0.046875 L 0.15625 -1.0625 L 0.25 -1.0625 C 0.332031 -0.726562 0.46875 -0.484375 0.65625 -0.328125 C 0.851562 -0.171875 1.082031 -0.09375 1.34375 -0.09375 C 1.488281 -0.09375 1.617188 -0.117188 1.734375 -0.171875 C 1.847656 -0.234375 1.9375 -0.3125 2 -0.40625 C 2.070312 -0.5 2.109375 -0.609375 2.109375 -0.734375 C 2.109375 -0.910156 2.066406 -1.046875 1.984375 -1.140625 C 1.910156 -1.242188 1.800781 -1.328125 1.65625 -1.390625 C 1.519531 -1.453125 1.363281 -1.507812 1.1875 -1.5625 C 0.894531 -1.675781 0.671875 -1.804688 0.515625 -1.953125 C 0.359375 -2.109375 0.28125 -2.3125 0.28125 -2.5625 C 0.28125 -2.75 0.328125 -2.914062 0.421875 -3.0625 C 0.523438 -3.207031 0.664062 -3.320312 0.84375 -3.40625 C 1.019531 -3.5 1.222656 -3.546875 1.453125 -3.546875 C 1.609375 -3.546875 1.75 -3.535156 1.875 -3.515625 C 2.007812 -3.503906 2.144531 -3.476562 2.28125 -3.4375 L 2.359375 -2.515625 L 2.265625 -2.5 C 2.171875 -2.78125 2.046875 -2.992188 1.890625 -3.140625 C 1.734375 -3.285156 1.53125 -3.359375 1.28125 -3.359375 C 1.09375 -3.359375 0.929688 -3.304688 0.796875 -3.203125 C 0.660156 -3.109375 0.59375 -2.972656 0.59375 -2.796875 C 0.59375 -2.640625 0.644531 -2.507812 0.75 -2.40625 C 0.851562 -2.300781 0.988281 -2.210938 1.15625 -2.140625 C 1.320312 -2.066406 1.503906 -1.992188 1.703125 -1.921875 C 1.960938 -1.835938 2.15625 -1.722656 2.28125 -1.578125 C 2.40625 -1.441406 2.46875 -1.253906 2.46875 -1.015625 C 2.46875 -0.804688 2.414062 -0.617188 2.3125 -0.453125 C 2.207031 -0.296875 2.050781 -0.171875 1.84375 -0.078125 C 1.644531 0.015625 1.40625 0.0625 1.125 0.0625 Z M 1.125 0.0625 "/></g></g></g><g fill="#c1a47d" fill-opacity="1"><g transform="translate(105.651586, 108.624463)"><g><path d="M 2.859375 -3.53125 L 2.9375 -2.59375 L 2.828125 -2.578125 C 2.785156 -2.742188 2.726562 -2.882812 2.65625 -3 C 2.59375 -3.113281 2.5 -3.195312 2.375 -3.25 C 2.257812 -3.3125 2.109375 -3.34375 1.921875 -3.34375 L 1.703125 -3.34375 L 1.703125 -0.828125 C 1.703125 -0.679688 1.707031 -0.554688 1.71875 -0.453125 C 1.738281 -0.359375 1.773438 -0.285156 1.828125 -0.234375 C 1.890625 -0.179688 1.984375 -0.132812 2.109375 -0.09375 L 2.109375 0 L 0.859375 0 L 0.859375 -0.09375 C 0.992188 -0.132812 1.085938 -0.179688 1.140625 -0.234375 C 1.191406 -0.296875 1.222656 -0.375 1.234375 -0.46875 C 1.253906 -0.5625 1.265625 -0.679688 1.265625 -0.828125 L 1.265625 -3.34375 L 1.0625 -3.34375 C 0.875 -3.34375 0.71875 -3.3125 0.59375 -3.25 C 0.476562 -3.195312 0.382812 -3.113281 0.3125 -3 C 0.25 -2.882812 0.195312 -2.742188 0.15625 -2.578125 L 0.046875 -2.59375 L 0.109375 -3.53125 C 0.160156 -3.519531 0.21875 -3.507812 0.28125 -3.5 C 0.34375 -3.488281 0.40625 -3.484375 0.46875 -3.484375 L 2.5 -3.484375 C 2.570312 -3.484375 2.640625 -3.488281 2.703125 -3.5 C 2.765625 -3.507812 2.816406 -3.519531 2.859375 -3.53125 Z M 2.859375 -3.53125 "/></g></g></g><g fill="#c1a47d" fill-opacity="1"><g transform="translate(111.26658, 108.624463)"><g><path d="M 1.9375 -1.640625 C 2.207031 -1.140625 2.46875 -0.753906 2.71875 -0.484375 C 2.976562 -0.222656 3.207031 -0.09375 3.40625 -0.09375 L 3.40625 0 C 3.320312 0 3.242188 0.00390625 3.171875 0.015625 C 3.097656 0.0234375 3 0.03125 2.875 0.03125 C 2.738281 0.03125 2.617188 0 2.515625 -0.0625 C 2.410156 -0.125 2.304688 -0.21875 2.203125 -0.34375 C 2.109375 -0.476562 2.003906 -0.644531 1.890625 -0.84375 C 1.773438 -1.039062 1.640625 -1.273438 1.484375 -1.546875 C 1.453125 -1.546875 1.414062 -1.546875 1.375 -1.546875 C 1.34375 -1.546875 1.3125 -1.546875 1.28125 -1.546875 C 1.238281 -1.546875 1.195312 -1.546875 1.15625 -1.546875 C 1.113281 -1.546875 1.070312 -1.550781 1.03125 -1.5625 L 1.03125 -0.828125 C 1.03125 -0.679688 1.035156 -0.554688 1.046875 -0.453125 C 1.054688 -0.359375 1.085938 -0.285156 1.140625 -0.234375 C 1.203125 -0.179688 1.300781 -0.132812 1.4375 -0.09375 L 1.4375 0 L 0.1875 0 L 0.1875 -0.09375 C 0.320312 -0.132812 0.414062 -0.179688 0.46875 -0.234375 C 0.519531 -0.296875 0.550781 -0.375 0.5625 -0.46875 C 0.570312 -0.5625 0.578125 -0.679688 0.578125 -0.828125 L 0.578125 -2.65625 C 0.578125 -2.800781 0.570312 -2.921875 0.5625 -3.015625 C 0.550781 -3.109375 0.515625 -3.179688 0.453125 -3.234375 C 0.398438 -3.296875 0.3125 -3.347656 0.1875 -3.390625 L 0.1875 -3.484375 L 0.828125 -3.484375 C 0.992188 -3.484375 1.144531 -3.484375 1.28125 -3.484375 C 1.414062 -3.492188 1.515625 -3.5 1.578125 -3.5 C 1.835938 -3.5 2.050781 -3.457031 2.21875 -3.375 C 2.382812 -3.289062 2.507812 -3.175781 2.59375 -3.03125 C 2.675781 -2.894531 2.71875 -2.742188 2.71875 -2.578125 C 2.71875 -2.359375 2.648438 -2.164062 2.515625 -2 C 2.378906 -1.84375 2.1875 -1.722656 1.9375 -1.640625 Z M 1.03125 -3.328125 L 1.03125 -1.734375 C 1.132812 -1.691406 1.253906 -1.671875 1.390625 -1.671875 C 1.660156 -1.691406 1.867188 -1.78125 2.015625 -1.9375 C 2.160156 -2.09375 2.234375 -2.285156 2.234375 -2.515625 C 2.234375 -2.648438 2.207031 -2.78125 2.15625 -2.90625 C 2.101562 -3.039062 2.019531 -3.148438 1.90625 -3.234375 C 1.789062 -3.316406 1.632812 -3.359375 1.4375 -3.359375 C 1.375 -3.359375 1.304688 -3.351562 1.234375 -3.34375 C 1.160156 -3.34375 1.09375 -3.335938 1.03125 -3.328125 Z M 1.03125 -3.328125 "/></g></g></g><g fill="#c1a47d" fill-opacity="1"><g transform="translate(117.181572, 108.624463)"><g><path d="M 1.890625 0.078125 C 1.515625 0.078125 1.222656 0.0078125 1.015625 -0.125 C 0.816406 -0.257812 0.675781 -0.457031 0.59375 -0.71875 C 0.519531 -0.988281 0.484375 -1.316406 0.484375 -1.703125 L 0.5 -2.65625 C 0.5 -2.800781 0.492188 -2.921875 0.484375 -3.015625 C 0.472656 -3.117188 0.4375 -3.195312 0.375 -3.25 C 0.320312 -3.300781 0.226562 -3.347656 0.09375 -3.390625 L 0.09375 -3.484375 L 1.34375 -3.484375 L 1.34375 -3.390625 C 1.21875 -3.347656 1.125 -3.296875 1.0625 -3.234375 C 1.007812 -3.179688 0.976562 -3.109375 0.96875 -3.015625 C 0.957031 -2.921875 0.953125 -2.800781 0.953125 -2.65625 L 0.953125 -1.625 C 0.953125 -1.289062 0.976562 -1.015625 1.03125 -0.796875 C 1.09375 -0.578125 1.203125 -0.414062 1.359375 -0.3125 C 1.515625 -0.207031 1.742188 -0.15625 2.046875 -0.15625 C 2.378906 -0.15625 2.628906 -0.265625 2.796875 -0.484375 C 2.972656 -0.703125 3.066406 -0.988281 3.078125 -1.34375 C 3.078125 -1.414062 3.078125 -1.488281 3.078125 -1.5625 C 3.078125 -1.644531 3.070312 -1.734375 3.0625 -1.828125 C 3.050781 -2.203125 3.019531 -2.492188 2.96875 -2.703125 C 2.925781 -2.921875 2.859375 -3.078125 2.765625 -3.171875 C 2.679688 -3.273438 2.550781 -3.347656 2.375 -3.390625 L 2.375 -3.484375 L 3.578125 -3.484375 L 3.578125 -3.390625 C 3.503906 -3.359375 3.441406 -3.316406 3.390625 -3.265625 C 3.347656 -3.222656 3.3125 -3.144531 3.28125 -3.03125 C 3.257812 -2.925781 3.242188 -2.769531 3.234375 -2.5625 C 3.234375 -2.351562 3.226562 -2.082031 3.21875 -1.75 C 3.21875 -1.46875 3.207031 -1.238281 3.1875 -1.0625 C 3.175781 -0.894531 3.140625 -0.742188 3.078125 -0.609375 C 2.992188 -0.398438 2.847656 -0.234375 2.640625 -0.109375 C 2.441406 0.015625 2.191406 0.078125 1.890625 0.078125 Z M 1.890625 0.078125 "/></g></g></g><g fill="#c1a47d" fill-opacity="1"><g transform="translate(123.476563, 108.624463)"><g><path d="M 2.015625 0.078125 C 1.660156 0.078125 1.347656 0.00390625 1.078125 -0.140625 C 0.804688 -0.296875 0.59375 -0.507812 0.4375 -0.78125 C 0.28125 -1.050781 0.203125 -1.367188 0.203125 -1.734375 C 0.203125 -2.097656 0.28125 -2.414062 0.4375 -2.6875 C 0.601562 -2.957031 0.828125 -3.171875 1.109375 -3.328125 C 1.398438 -3.484375 1.734375 -3.5625 2.109375 -3.5625 C 2.265625 -3.5625 2.429688 -3.546875 2.609375 -3.515625 C 2.796875 -3.484375 2.976562 -3.4375 3.15625 -3.375 L 3.25 -2.40625 L 3.15625 -2.375 C 3.03125 -2.6875 2.867188 -2.9375 2.671875 -3.125 C 2.484375 -3.3125 2.253906 -3.40625 1.984375 -3.40625 C 1.585938 -3.40625 1.28125 -3.265625 1.0625 -2.984375 C 0.84375 -2.703125 0.734375 -2.316406 0.734375 -1.828125 C 0.734375 -1.492188 0.785156 -1.191406 0.890625 -0.921875 C 1.003906 -0.660156 1.164062 -0.453125 1.375 -0.296875 C 1.582031 -0.140625 1.820312 -0.0625 2.09375 -0.0625 C 2.363281 -0.0625 2.59375 -0.144531 2.78125 -0.3125 C 2.976562 -0.476562 3.15625 -0.695312 3.3125 -0.96875 L 3.40625 -0.9375 L 3.109375 -0.078125 C 2.921875 -0.0234375 2.742188 0.0078125 2.578125 0.03125 C 2.410156 0.0625 2.222656 0.078125 2.015625 0.078125 Z M 2.015625 0.078125 "/></g></g></g><g fill="#c1a47d" fill-opacity="1"><g transform="translate(129.661558, 108.624463)"><g><path d="M 2.859375 -3.53125 L 2.9375 -2.59375 L 2.828125 -2.578125 C 2.785156 -2.742188 2.726562 -2.882812 2.65625 -3 C 2.59375 -3.113281 2.5 -3.195312 2.375 -3.25 C 2.257812 -3.3125 2.109375 -3.34375 1.921875 -3.34375 L 1.703125 -3.34375 L 1.703125 -0.828125 C 1.703125 -0.679688 1.707031 -0.554688 1.71875 -0.453125 C 1.738281 -0.359375 1.773438 -0.285156 1.828125 -0.234375 C 1.890625 -0.179688 1.984375 -0.132812 2.109375 -0.09375 L 2.109375 0 L 0.859375 0 L 0.859375 -0.09375 C 0.992188 -0.132812 1.085938 -0.179688 1.140625 -0.234375 C 1.191406 -0.296875 1.222656 -0.375 1.234375 -0.46875 C 1.253906 -0.5625 1.265625 -0.679688 1.265625 -0.828125 L 1.265625 -3.34375 L 1.0625 -3.34375 C 0.875 -3.34375 0.71875 -3.3125 0.59375 -3.25 C 0.476562 -3.195312 0.382812 -3.113281 0.3125 -3 C 0.25 -2.882812 0.195312 -2.742188 0.15625 -2.578125 L 0.046875 -2.59375 L 0.109375 -3.53125 C 0.160156 -3.519531 0.21875 -3.507812 0.28125 -3.5 C 0.34375 -3.488281 0.40625 -3.484375 0.46875 -3.484375 L 2.5 -3.484375 C 2.570312 -3.484375 2.640625 -3.488281 2.703125 -3.5 C 2.765625 -3.507812 2.816406 -3.519531 2.859375 -3.53125 Z M 2.859375 -3.53125 "/></g></g></g><g fill="#c1a47d" fill-opacity="1"><g transform="translate(135.276551, 108.624463)"><g><path d="M 0.59375 -0.828125 L 0.59375 -2.65625 C 0.59375 -2.800781 0.582031 -2.921875 0.5625 -3.015625 C 0.550781 -3.117188 0.519531 -3.195312 0.46875 -3.25 C 0.414062 -3.300781 0.320312 -3.347656 0.1875 -3.390625 L 0.1875 -3.484375 L 1.4375 -3.484375 L 1.4375 -3.390625 C 1.300781 -3.347656 1.207031 -3.296875 1.15625 -3.234375 C 1.101562 -3.179688 1.070312 -3.109375 1.0625 -3.015625 C 1.050781 -2.921875 1.046875 -2.800781 1.046875 -2.65625 L 1.046875 -0.828125 C 1.046875 -0.679688 1.050781 -0.554688 1.0625 -0.453125 C 1.070312 -0.359375 1.101562 -0.285156 1.15625 -0.234375 C 1.21875 -0.179688 1.3125 -0.132812 1.4375 -0.09375 L 1.4375 0 L 0.1875 0 L 0.1875 -0.09375 C 0.320312 -0.132812 0.414062 -0.179688 0.46875 -0.234375 C 0.53125 -0.296875 0.566406 -0.375 0.578125 -0.46875 C 0.585938 -0.5625 0.59375 -0.679688 0.59375 -0.828125 Z M 0.59375 -0.828125 "/></g></g></g><g fill="#c1a47d" fill-opacity="1"><g transform="translate(139.551547, 108.624463)"><g><path d="M 2 0.078125 C 1.738281 0.078125 1.5 0.03125 1.28125 -0.0625 C 1.070312 -0.15625 0.882812 -0.285156 0.71875 -0.453125 C 0.5625 -0.617188 0.441406 -0.8125 0.359375 -1.03125 C 0.273438 -1.257812 0.234375 -1.5 0.234375 -1.75 C 0.234375 -2 0.273438 -2.234375 0.359375 -2.453125 C 0.453125 -2.679688 0.582031 -2.875 0.75 -3.03125 C 0.914062 -3.195312 1.101562 -3.328125 1.3125 -3.421875 C 1.53125 -3.515625 1.757812 -3.5625 2 -3.5625 C 2.269531 -3.5625 2.507812 -3.515625 2.71875 -3.421875 C 2.9375 -3.335938 3.125 -3.210938 3.28125 -3.046875 C 3.445312 -2.878906 3.570312 -2.6875 3.65625 -2.46875 C 3.738281 -2.25 3.78125 -2.007812 3.78125 -1.75 C 3.78125 -1.5 3.734375 -1.257812 3.640625 -1.03125 C 3.546875 -0.8125 3.414062 -0.617188 3.25 -0.453125 C 3.09375 -0.285156 2.90625 -0.15625 2.6875 -0.0625 C 2.476562 0.03125 2.25 0.078125 2 0.078125 Z M 2.109375 -0.0625 C 2.359375 -0.0703125 2.566406 -0.144531 2.734375 -0.28125 C 2.910156 -0.425781 3.039062 -0.617188 3.125 -0.859375 C 3.21875 -1.109375 3.253906 -1.390625 3.234375 -1.703125 C 3.222656 -2.054688 3.160156 -2.363281 3.046875 -2.625 C 2.929688 -2.882812 2.773438 -3.082031 2.578125 -3.21875 C 2.378906 -3.363281 2.148438 -3.429688 1.890625 -3.421875 C 1.648438 -3.410156 1.441406 -3.335938 1.265625 -3.203125 C 1.097656 -3.066406 0.96875 -2.878906 0.875 -2.640625 C 0.789062 -2.398438 0.753906 -2.125 0.765625 -1.8125 C 0.773438 -1.46875 0.835938 -1.160156 0.953125 -0.890625 C 1.078125 -0.617188 1.238281 -0.410156 1.4375 -0.265625 C 1.632812 -0.128906 1.859375 -0.0625 2.109375 -0.0625 Z M 2.109375 -0.0625 "/></g></g></g><g fill="#c1a47d" fill-opacity="1"><g transform="translate(146.196544, 108.624463)"><g><path d="M 2.59375 -3.390625 L 2.59375 -3.484375 L 3.78125 -3.484375 L 3.78125 -3.390625 C 3.707031 -3.359375 3.644531 -3.316406 3.59375 -3.265625 C 3.550781 -3.222656 3.515625 -3.144531 3.484375 -3.03125 C 3.460938 -2.914062 3.445312 -2.75 3.4375 -2.53125 C 3.425781 -2.3125 3.421875 -2.019531 3.421875 -1.65625 L 3.40625 -0.6875 C 3.40625 -0.519531 3.40625 -0.375 3.40625 -0.25 C 3.414062 -0.132812 3.421875 -0.0351562 3.421875 0.046875 L 3.1875 0.046875 C 3.15625 -0.015625 3.109375 -0.078125 3.046875 -0.140625 C 2.992188 -0.203125 2.925781 -0.28125 2.84375 -0.375 L 0.65625 -2.96875 C 0.65625 -2.644531 0.65625 -2.351562 0.65625 -2.09375 C 0.664062 -1.832031 0.675781 -1.582031 0.6875 -1.34375 C 0.695312 -1.070312 0.722656 -0.847656 0.765625 -0.671875 C 0.804688 -0.492188 0.875 -0.359375 0.96875 -0.265625 C 1.0625 -0.179688 1.1875 -0.125 1.34375 -0.09375 L 1.34375 0 L 0.125 0 L 0.125 -0.09375 C 0.1875 -0.113281 0.238281 -0.140625 0.28125 -0.171875 C 0.332031 -0.210938 0.367188 -0.28125 0.390625 -0.375 C 0.421875 -0.46875 0.441406 -0.597656 0.453125 -0.765625 C 0.472656 -0.941406 0.484375 -1.164062 0.484375 -1.4375 L 0.5 -2.921875 C 0.507812 -3.015625 0.503906 -3.085938 0.484375 -3.140625 C 0.472656 -3.203125 0.441406 -3.25 0.390625 -3.28125 C 0.347656 -3.320312 0.273438 -3.359375 0.171875 -3.390625 L 0.171875 -3.484375 L 0.921875 -3.484375 C 0.941406 -3.421875 0.972656 -3.359375 1.015625 -3.296875 C 1.054688 -3.242188 1.101562 -3.1875 1.15625 -3.125 L 3.265625 -0.625 L 3.234375 -1.671875 C 3.234375 -1.984375 3.222656 -2.242188 3.203125 -2.453125 C 3.179688 -2.660156 3.144531 -2.828125 3.09375 -2.953125 C 3.050781 -3.085938 2.988281 -3.1875 2.90625 -3.25 C 2.820312 -3.3125 2.71875 -3.359375 2.59375 -3.390625 Z M 2.59375 -3.390625 "/></g></g></g><g fill="#c1a47d" fill-opacity="1"><g transform="translate(152.74154, 108.624463)"><g/></g></g><g fill="#c1a47d" fill-opacity="1"><g transform="translate(156.766534, 108.624463)"><g><path d="M 2.015625 0.078125 C 1.660156 0.078125 1.347656 0.00390625 1.078125 -0.140625 C 0.804688 -0.296875 0.59375 -0.507812 0.4375 -0.78125 C 0.28125 -1.050781 0.203125 -1.367188 0.203125 -1.734375 C 0.203125 -2.097656 0.28125 -2.414062 0.4375 -2.6875 C 0.601562 -2.957031 0.828125 -3.171875 1.109375 -3.328125 C 1.398438 -3.484375 1.734375 -3.5625 2.109375 -3.5625 C 2.265625 -3.5625 2.429688 -3.546875 2.609375 -3.515625 C 2.796875 -3.484375 2.976562 -3.4375 3.15625 -3.375 L 3.25 -2.40625 L 3.15625 -2.375 C 3.03125 -2.6875 2.867188 -2.9375 2.671875 -3.125 C 2.484375 -3.3125 2.253906 -3.40625 1.984375 -3.40625 C 1.585938 -3.40625 1.28125 -3.265625 1.0625 -2.984375 C 0.84375 -2.703125 0.734375 -2.316406 0.734375 -1.828125 C 0.734375 -1.492188 0.785156 -1.191406 0.890625 -0.921875 C 1.003906 -0.660156 1.164062 -0.453125 1.375 -0.296875 C 1.582031 -0.140625 1.820312 -0.0625 2.09375 -0.0625 C 2.363281 -0.0625 2.59375 -0.144531 2.78125 -0.3125 C 2.976562 -0.476562 3.15625 -0.695312 3.3125 -0.96875 L 3.40625 -0.9375 L 3.109375 -0.078125 C 2.921875 -0.0234375 2.742188 0.0078125 2.578125 0.03125 C 2.410156 0.0625 2.222656 0.078125 2.015625 0.078125 Z M 2.015625 0.078125 "/></g></g></g><g fill="#c1a47d" fill-opacity="1"><g transform="translate(162.951533, 108.624463)"><g><path d="M 2 0.078125 C 1.738281 0.078125 1.5 0.03125 1.28125 -0.0625 C 1.070312 -0.15625 0.882812 -0.285156 0.71875 -0.453125 C 0.5625 -0.617188 0.441406 -0.8125 0.359375 -1.03125 C 0.273438 -1.257812 0.234375 -1.5 0.234375 -1.75 C 0.234375 -2 0.273438 -2.234375 0.359375 -2.453125 C 0.453125 -2.679688 0.582031 -2.875 0.75 -3.03125 C 0.914062 -3.195312 1.101562 -3.328125 1.3125 -3.421875 C 1.53125 -3.515625 1.757812 -3.5625 2 -3.5625 C 2.269531 -3.5625 2.507812 -3.515625 2.71875 -3.421875 C 2.9375 -3.335938 3.125 -3.210938 3.28125 -3.046875 C 3.445312 -2.878906 3.570312 -2.6875 3.65625 -2.46875 C 3.738281 -2.25 3.78125 -2.007812 3.78125 -1.75 C 3.78125 -1.5 3.734375 -1.257812 3.640625 -1.03125 C 3.546875 -0.8125 3.414062 -0.617188 3.25 -0.453125 C 3.09375 -0.285156 2.90625 -0.15625 2.6875 -0.0625 C 2.476562 0.03125 2.25 0.078125 2 0.078125 Z M 2.109375 -0.0625 C 2.359375 -0.0703125 2.566406 -0.144531 2.734375 -0.28125 C 2.910156 -0.425781 3.039062 -0.617188 3.125 -0.859375 C 3.21875 -1.109375 3.253906 -1.390625 3.234375 -1.703125 C 3.222656 -2.054688 3.160156 -2.363281 3.046875 -2.625 C 2.929688 -2.882812 2.773438 -3.082031 2.578125 -3.21875 C 2.378906 -3.363281 2.148438 -3.429688 1.890625 -3.421875 C 1.648438 -3.410156 1.441406 -3.335938 1.265625 -3.203125 C 1.097656 -3.066406 0.96875 -2.878906 0.875 -2.640625 C 0.789062 -2.398438 0.753906 -2.125 0.765625 -1.8125 C 0.773438 -1.46875 0.835938 -1.160156 0.953125 -0.890625 C 1.078125 -0.617188 1.238281 -0.410156 1.4375 -0.265625 C 1.632812 -0.128906 1.859375 -0.0625 2.109375 -0.0625 Z M 2.109375 -0.0625 "/></g></g></g><g fill="#c1a47d" fill-opacity="1"><g transform="translate(169.59653, 108.624463)"><g><path d="M 0.640625 0.0625 C 0.554688 0.0625 0.484375 0.0351562 0.421875 -0.015625 C 0.367188 -0.0664062 0.34375 -0.132812 0.34375 -0.21875 C 0.34375 -0.3125 0.375 -0.390625 0.4375 -0.453125 C 0.507812 -0.523438 0.585938 -0.5625 0.671875 -0.5625 C 0.753906 -0.5625 0.820312 -0.53125 0.875 -0.46875 C 0.9375 -0.414062 0.96875 -0.347656 0.96875 -0.265625 C 0.96875 -0.171875 0.929688 -0.09375 0.859375 -0.03125 C 0.796875 0.03125 0.722656 0.0625 0.640625 0.0625 Z M 0.640625 0.0625 "/></g></g></g></svg>