<svg xmlns="http://www.w3.org/2000/svg" xmlns:xlink="http://www.w3.org/1999/xlink" width="40" zoomAndPan="magnify" viewBox="0 0 30 30.000001" height="40" preserveAspectRatio="xMidYMid meet" version="1.0"><defs><g/><clipPath id="c348f682ae"><path d="M 11 6 L 29.515625 6 L 29.515625 23 L 11 23 Z M 11 6 " clip-rule="nonzero"/></clipPath></defs><g fill="#c1a47d" fill-opacity="1"><g transform="translate(1.968597, 16.618148)"><g><path d="M 1.265625 3.359375 C 1.148438 3.359375 1.046875 3.351562 0.953125 3.34375 C 0.867188 3.332031 0.796875 3.316406 0.734375 3.296875 C 0.609375 3.265625 0.515625 3.234375 0.453125 3.203125 C 0.398438 3.171875 0.320312 3.125 0.21875 3.0625 C 0.164062 3 0.113281 2.941406 0.0625 2.890625 C 0.0195312 2.835938 0 2.789062 0 2.75 C 0 2.71875 0.015625 2.691406 0.046875 2.671875 C 0.0664062 2.628906 0.0859375 2.609375 0.109375 2.609375 C 0.160156 2.609375 0.21875 2.671875 0.28125 2.796875 C 0.363281 2.890625 0.445312 2.953125 0.53125 2.984375 C 0.625 3.023438 0.726562 3.0625 0.84375 3.09375 C 0.925781 3.113281 1.019531 3.125 1.125 3.125 C 1.269531 3.125 1.414062 3.109375 1.5625 3.078125 C 1.71875 3.046875 1.867188 3.003906 2.015625 2.953125 C 2.242188 2.890625 2.460938 2.800781 2.671875 2.6875 C 2.890625 2.570312 3.148438 2.4375 3.453125 2.28125 C 3.796875 2.101562 4.140625 1.921875 4.484375 1.734375 C 4.828125 1.554688 5.160156 1.363281 5.484375 1.15625 C 5.703125 1.019531 5.921875 0.878906 6.140625 0.734375 C 6.359375 0.585938 6.578125 0.4375 6.796875 0.28125 C 6.992188 0.125 7.191406 -0.0234375 7.390625 -0.171875 C 7.597656 -0.328125 7.800781 -0.484375 8 -0.640625 C 8.21875 -0.796875 8.429688 -0.957031 8.640625 -1.125 C 8.847656 -1.300781 9.054688 -1.472656 9.265625 -1.640625 C 9.410156 -1.753906 9.546875 -1.875 9.671875 -2 C 9.796875 -2.125 9.925781 -2.242188 10.0625 -2.359375 C 10.195312 -2.472656 10.332031 -2.585938 10.46875 -2.703125 C 10.601562 -2.828125 10.738281 -2.945312 10.875 -3.0625 C 10.882812 -3.070312 10.898438 -3.085938 10.921875 -3.109375 C 11.097656 -3.265625 11.269531 -3.421875 11.4375 -3.578125 C 11.601562 -3.734375 11.769531 -3.890625 11.9375 -4.046875 C 12.019531 -4.109375 12.09375 -4.171875 12.15625 -4.234375 C 12.226562 -4.304688 12.304688 -4.367188 12.390625 -4.421875 C 12.460938 -4.472656 12.53125 -4.53125 12.59375 -4.59375 C 12.65625 -4.65625 12.71875 -4.710938 12.78125 -4.765625 C 12.945312 -4.910156 13.109375 -5.050781 13.265625 -5.1875 C 13.429688 -5.332031 13.585938 -5.472656 13.734375 -5.609375 L 14.328125 -6.140625 C 14.453125 -6.234375 14.578125 -6.332031 14.703125 -6.4375 C 14.828125 -6.539062 14.945312 -6.640625 15.0625 -6.734375 L 15.609375 -7.21875 C 15.671875 -7.257812 15.71875 -7.289062 15.75 -7.3125 C 15.78125 -7.34375 15.832031 -7.378906 15.90625 -7.421875 C 15.78125 -7.441406 15.671875 -7.460938 15.578125 -7.484375 C 15.484375 -7.503906 15.382812 -7.523438 15.28125 -7.546875 C 15.175781 -7.566406 15.035156 -7.585938 14.859375 -7.609375 C 14.742188 -7.617188 14.644531 -7.628906 14.5625 -7.640625 C 14.476562 -7.660156 14.378906 -7.675781 14.265625 -7.6875 C 14.097656 -7.695312 13.960938 -7.707031 13.859375 -7.71875 C 13.765625 -7.726562 13.625 -7.738281 13.4375 -7.75 C 13.332031 -7.757812 13.226562 -7.765625 13.125 -7.765625 C 13.03125 -7.765625 12.914062 -7.769531 12.78125 -7.78125 L 11.9375 -7.828125 C 11.90625 -7.828125 11.851562 -7.828125 11.78125 -7.828125 C 11.71875 -7.835938 11.640625 -7.84375 11.546875 -7.84375 C 11.359375 -7.84375 11.101562 -7.828125 10.78125 -7.796875 C 10.457031 -7.765625 10.050781 -7.691406 9.5625 -7.578125 C 9.25 -7.492188 8.9375 -7.382812 8.625 -7.25 C 8.320312 -7.113281 8.03125 -6.960938 7.75 -6.796875 C 7.570312 -6.679688 7.390625 -6.546875 7.203125 -6.390625 C 7.023438 -6.242188 6.859375 -6.054688 6.703125 -5.828125 C 6.691406 -5.816406 6.675781 -5.804688 6.65625 -5.796875 C 6.644531 -5.785156 6.628906 -5.78125 6.609375 -5.78125 C 6.578125 -5.800781 6.566406 -5.828125 6.578125 -5.859375 C 6.710938 -6.085938 6.835938 -6.253906 6.953125 -6.359375 C 7.003906 -6.410156 7.101562 -6.492188 7.25 -6.609375 C 7.40625 -6.734375 7.550781 -6.835938 7.6875 -6.921875 C 7.945312 -7.078125 8.207031 -7.210938 8.46875 -7.328125 C 8.726562 -7.453125 9.019531 -7.566406 9.34375 -7.671875 C 9.414062 -7.691406 9.472656 -7.707031 9.515625 -7.71875 C 9.566406 -7.738281 9.617188 -7.753906 9.671875 -7.765625 C 9.816406 -7.796875 9.957031 -7.820312 10.09375 -7.84375 C 10.238281 -7.875 10.390625 -7.894531 10.546875 -7.90625 C 10.710938 -7.9375 10.878906 -7.953125 11.046875 -7.953125 C 11.222656 -7.960938 11.394531 -7.96875 11.5625 -7.96875 L 11.90625 -7.96875 C 12.007812 -7.96875 12.085938 -7.960938 12.140625 -7.953125 C 12.203125 -7.953125 12.3125 -7.945312 12.46875 -7.9375 L 12.953125 -7.90625 C 13.023438 -7.90625 13.09375 -7.90625 13.15625 -7.90625 C 13.226562 -7.90625 13.3125 -7.898438 13.40625 -7.890625 C 13.476562 -7.878906 13.550781 -7.875 13.625 -7.875 C 13.695312 -7.875 13.769531 -7.863281 13.84375 -7.84375 C 13.90625 -7.84375 13.953125 -7.84375 13.984375 -7.84375 C 14.023438 -7.84375 14.085938 -7.832031 14.171875 -7.8125 C 14.234375 -7.8125 14.300781 -7.804688 14.375 -7.796875 C 14.445312 -7.785156 14.5 -7.78125 14.53125 -7.78125 C 14.707031 -7.757812 14.847656 -7.738281 14.953125 -7.71875 C 15.066406 -7.707031 15.175781 -7.691406 15.28125 -7.671875 C 15.382812 -7.648438 15.515625 -7.628906 15.671875 -7.609375 C 15.734375 -7.597656 15.789062 -7.585938 15.84375 -7.578125 C 15.894531 -7.566406 15.957031 -7.554688 16.03125 -7.546875 C 16.726562 -8.179688 17.460938 -8.800781 18.234375 -9.40625 C 19.015625 -10.019531 19.78125 -10.625 20.53125 -11.21875 C 20.394531 -11.1875 20.242188 -11.160156 20.078125 -11.140625 C 19.921875 -11.117188 19.75 -11.09375 19.5625 -11.0625 C 19.363281 -11.03125 19.164062 -11 18.96875 -10.96875 C 18.78125 -10.945312 18.59375 -10.921875 18.40625 -10.890625 C 18.3125 -10.890625 18.222656 -10.882812 18.140625 -10.875 C 18.054688 -10.863281 17.945312 -10.847656 17.8125 -10.828125 C 17.726562 -10.828125 17.578125 -10.820312 17.359375 -10.8125 C 17.140625 -10.800781 16.90625 -10.789062 16.65625 -10.78125 C 16.414062 -10.769531 16.203125 -10.765625 16.015625 -10.765625 L 13.171875 -10.765625 C 13.109375 -10.765625 13.007812 -10.765625 12.875 -10.765625 C 12.75 -10.765625 12.601562 -10.757812 12.4375 -10.75 C 12.269531 -10.75 12.125 -10.742188 12 -10.734375 C 11.882812 -10.734375 11.738281 -10.734375 11.5625 -10.734375 C 11.363281 -10.722656 11.207031 -10.71875 11.09375 -10.71875 C 10.976562 -10.71875 10.851562 -10.707031 10.71875 -10.6875 C 10.570312 -10.6875 10.4375 -10.679688 10.3125 -10.671875 C 10.195312 -10.660156 10.09375 -10.648438 10 -10.640625 C 9.8125 -10.628906 9.65625 -10.613281 9.53125 -10.59375 C 9.414062 -10.570312 9.300781 -10.546875 9.1875 -10.515625 C 9.082031 -10.492188 8.953125 -10.46875 8.796875 -10.4375 C 8.304688 -10.351562 7.828125 -10.25 7.359375 -10.125 C 7.222656 -10.09375 7.101562 -10.054688 7 -10.015625 C 6.90625 -9.972656 6.773438 -9.921875 6.609375 -9.859375 C 6.472656 -9.796875 6.335938 -9.738281 6.203125 -9.6875 C 6.066406 -9.632812 5.929688 -9.578125 5.796875 -9.515625 C 5.503906 -9.359375 5.21875 -9.195312 4.9375 -9.03125 C 4.65625 -8.875 4.378906 -8.695312 4.109375 -8.5 C 4.003906 -8.40625 3.890625 -8.3125 3.765625 -8.21875 C 3.648438 -8.125 3.539062 -8.023438 3.4375 -7.921875 C 3.382812 -7.867188 3.328125 -7.816406 3.265625 -7.765625 C 3.210938 -7.710938 3.15625 -7.660156 3.09375 -7.609375 C 3.03125 -7.566406 2.96875 -7.503906 2.90625 -7.421875 C 2.84375 -7.347656 2.769531 -7.265625 2.6875 -7.171875 C 2.65625 -7.117188 2.625 -7.070312 2.59375 -7.03125 C 2.570312 -6.988281 2.539062 -6.953125 2.5 -6.921875 C 2.46875 -6.921875 2.445312 -6.929688 2.4375 -6.953125 C 2.4375 -6.972656 2.429688 -7 2.421875 -7.03125 C 2.472656 -7.113281 2.523438 -7.195312 2.578125 -7.28125 C 2.640625 -7.363281 2.695312 -7.441406 2.75 -7.515625 C 3.0625 -7.816406 3.390625 -8.113281 3.734375 -8.40625 C 4.085938 -8.695312 4.457031 -8.957031 4.84375 -9.1875 C 5.0625 -9.3125 5.273438 -9.425781 5.484375 -9.53125 C 5.703125 -9.644531 5.929688 -9.757812 6.171875 -9.875 C 6.234375 -9.894531 6.300781 -9.914062 6.375 -9.9375 C 6.445312 -9.957031 6.507812 -9.984375 6.5625 -10.015625 C 6.707031 -10.078125 6.820312 -10.125 6.90625 -10.15625 C 6.988281 -10.1875 7.082031 -10.210938 7.1875 -10.234375 C 7.34375 -10.273438 7.472656 -10.3125 7.578125 -10.34375 C 7.691406 -10.375 7.835938 -10.414062 8.015625 -10.46875 C 8.148438 -10.5 8.335938 -10.535156 8.578125 -10.578125 C 8.816406 -10.628906 9.046875 -10.664062 9.265625 -10.6875 C 9.398438 -10.707031 9.503906 -10.722656 9.578125 -10.734375 C 9.660156 -10.753906 9.769531 -10.769531 9.90625 -10.78125 C 10.039062 -10.789062 10.140625 -10.800781 10.203125 -10.8125 C 10.265625 -10.820312 10.347656 -10.828125 10.453125 -10.828125 C 10.535156 -10.835938 10.648438 -10.847656 10.796875 -10.859375 C 10.941406 -10.878906 11.054688 -10.890625 11.140625 -10.890625 C 11.316406 -10.890625 11.457031 -10.890625 11.5625 -10.890625 C 11.675781 -10.890625 11.820312 -10.890625 12 -10.890625 L 13.203125 -10.890625 C 13.234375 -10.910156 13.285156 -10.914062 13.359375 -10.90625 C 13.429688 -10.90625 13.515625 -10.90625 13.609375 -10.90625 C 13.648438 -10.914062 13.722656 -10.921875 13.828125 -10.921875 C 13.941406 -10.921875 14.050781 -10.921875 14.15625 -10.921875 C 14.269531 -10.921875 14.351562 -10.921875 14.40625 -10.921875 C 14.539062 -10.921875 14.65625 -10.921875 14.75 -10.921875 C 14.84375 -10.921875 14.9375 -10.921875 15.03125 -10.921875 C 15.125 -10.921875 15.21875 -10.921875 15.3125 -10.921875 C 15.40625 -10.921875 15.515625 -10.921875 15.640625 -10.921875 C 15.722656 -10.921875 15.8125 -10.921875 15.90625 -10.921875 C 16 -10.921875 16.109375 -10.921875 16.234375 -10.921875 C 16.359375 -10.921875 16.445312 -10.921875 16.5 -10.921875 C 16.5625 -10.929688 16.640625 -10.9375 16.734375 -10.9375 C 16.765625 -10.945312 16.832031 -10.957031 16.9375 -10.96875 C 17.050781 -10.976562 17.128906 -10.976562 17.171875 -10.96875 C 17.242188 -10.976562 17.359375 -10.984375 17.515625 -10.984375 C 17.671875 -10.992188 17.816406 -11.003906 17.953125 -11.015625 C 18.097656 -11.023438 18.253906 -11.039062 18.421875 -11.0625 C 18.597656 -11.09375 18.757812 -11.117188 18.90625 -11.140625 L 19.59375 -11.25 C 19.625 -11.25 19.664062 -11.253906 19.71875 -11.265625 C 19.769531 -11.273438 19.8125 -11.28125 19.84375 -11.28125 C 20.125 -11.320312 20.378906 -11.390625 20.609375 -11.484375 C 20.835938 -11.578125 21.066406 -11.707031 21.296875 -11.875 C 21.359375 -11.914062 21.414062 -11.953125 21.46875 -11.984375 C 21.53125 -12.015625 21.582031 -12.039062 21.625 -12.0625 C 21.664062 -12.09375 21.710938 -12.117188 21.765625 -12.140625 C 21.828125 -12.160156 21.890625 -12.171875 21.953125 -12.171875 C 22.015625 -12.171875 22.070312 -12.160156 22.125 -12.140625 C 22.1875 -12.109375 22.21875 -12.0625 22.21875 -12 C 22.21875 -11.957031 22.207031 -11.925781 22.1875 -11.90625 C 22.164062 -11.863281 22.132812 -11.820312 22.09375 -11.78125 C 22.050781 -11.75 22.007812 -11.71875 21.96875 -11.6875 C 21.914062 -11.632812 21.863281 -11.585938 21.8125 -11.546875 C 21.757812 -11.503906 21.710938 -11.460938 21.671875 -11.421875 C 21.515625 -11.285156 21.363281 -11.15625 21.21875 -11.03125 C 21.070312 -10.90625 20.925781 -10.78125 20.78125 -10.65625 C 20.675781 -10.5625 20.578125 -10.46875 20.484375 -10.375 C 20.390625 -10.289062 20.289062 -10.207031 20.1875 -10.125 C 19.945312 -9.945312 19.71875 -9.757812 19.5 -9.5625 C 19.28125 -9.363281 19.050781 -9.175781 18.8125 -9 C 18.78125 -8.976562 18.738281 -8.941406 18.6875 -8.890625 C 18.550781 -8.753906 18.40625 -8.617188 18.25 -8.484375 C 18.101562 -8.359375 17.953125 -8.234375 17.796875 -8.109375 C 17.691406 -8.023438 17.585938 -7.9375 17.484375 -7.84375 C 17.390625 -7.757812 17.296875 -7.671875 17.203125 -7.578125 C 17.179688 -7.566406 17.148438 -7.539062 17.109375 -7.5 C 17.078125 -7.46875 17.046875 -7.429688 17.015625 -7.390625 C 17.109375 -7.378906 17.238281 -7.363281 17.40625 -7.34375 C 17.570312 -7.332031 17.75 -7.320312 17.9375 -7.3125 C 18.125 -7.3125 18.300781 -7.304688 18.46875 -7.296875 C 18.632812 -7.296875 18.765625 -7.296875 18.859375 -7.296875 C 19.140625 -7.304688 19.414062 -7.328125 19.6875 -7.359375 C 19.96875 -7.398438 20.242188 -7.445312 20.515625 -7.5 C 20.722656 -7.53125 20.914062 -7.582031 21.09375 -7.65625 C 21.28125 -7.738281 21.457031 -7.835938 21.625 -7.953125 C 21.65625 -7.984375 21.6875 -8.007812 21.71875 -8.03125 C 21.757812 -8.0625 21.796875 -8.085938 21.828125 -8.109375 C 21.847656 -8.117188 21.867188 -8.128906 21.890625 -8.140625 C 21.910156 -8.148438 21.929688 -8.15625 21.953125 -8.15625 C 21.960938 -8.144531 21.96875 -8.128906 21.96875 -8.109375 C 21.96875 -8.066406 21.941406 -8.023438 21.890625 -7.984375 C 21.859375 -7.972656 21.835938 -7.960938 21.828125 -7.953125 C 21.816406 -7.941406 21.804688 -7.925781 21.796875 -7.90625 C 21.597656 -7.800781 21.445312 -7.710938 21.34375 -7.640625 C 21.238281 -7.566406 21.09375 -7.503906 20.90625 -7.453125 C 20.695312 -7.398438 20.488281 -7.351562 20.28125 -7.3125 C 20.070312 -7.269531 19.859375 -7.238281 19.640625 -7.21875 C 19.460938 -7.207031 19.316406 -7.195312 19.203125 -7.1875 C 19.097656 -7.175781 18.988281 -7.164062 18.875 -7.15625 C 18.769531 -7.15625 18.628906 -7.15625 18.453125 -7.15625 C 18.390625 -7.15625 18.285156 -7.15625 18.140625 -7.15625 C 18.003906 -7.164062 17.867188 -7.175781 17.734375 -7.1875 L 17.34375 -7.21875 C 17.300781 -7.21875 17.234375 -7.222656 17.140625 -7.234375 C 17.054688 -7.242188 16.96875 -7.257812 16.875 -7.28125 C 16.832031 -7.257812 16.800781 -7.238281 16.78125 -7.21875 C 16.769531 -7.207031 16.75 -7.1875 16.71875 -7.15625 C 16.632812 -7.09375 16.550781 -7.023438 16.46875 -6.953125 C 16.382812 -6.890625 16.300781 -6.816406 16.21875 -6.734375 C 16.164062 -6.691406 16.109375 -6.644531 16.046875 -6.59375 C 15.992188 -6.539062 15.9375 -6.492188 15.875 -6.453125 C 15.71875 -6.328125 15.5625 -6.203125 15.40625 -6.078125 C 15.257812 -5.960938 15.117188 -5.835938 14.984375 -5.703125 C 14.847656 -5.578125 14.710938 -5.457031 14.578125 -5.34375 C 14.441406 -5.226562 14.304688 -5.113281 14.171875 -5 C 14.140625 -4.976562 14.109375 -4.953125 14.078125 -4.921875 C 14.054688 -4.898438 14.03125 -4.875 14 -4.84375 C 13.863281 -4.707031 13.71875 -4.570312 13.5625 -4.4375 C 13.414062 -4.300781 13.257812 -4.171875 13.09375 -4.046875 C 13.070312 -4.035156 13.039062 -4.007812 13 -3.96875 C 12.851562 -3.820312 12.703125 -3.679688 12.546875 -3.546875 C 12.398438 -3.421875 12.242188 -3.289062 12.078125 -3.15625 C 12.046875 -3.132812 12.019531 -3.113281 12 -3.09375 C 11.976562 -3.070312 11.957031 -3.050781 11.9375 -3.03125 C 11.757812 -2.863281 11.582031 -2.695312 11.40625 -2.53125 C 11.238281 -2.363281 11.054688 -2.203125 10.859375 -2.046875 C 10.660156 -1.867188 10.460938 -1.691406 10.265625 -1.515625 C 10.066406 -1.347656 9.859375 -1.1875 9.640625 -1.03125 C 9.421875 -0.863281 9.203125 -0.691406 8.984375 -0.515625 C 8.765625 -0.335938 8.546875 -0.164062 8.328125 0 C 8.160156 0.132812 7.988281 0.265625 7.8125 0.390625 C 7.632812 0.523438 7.457031 0.648438 7.28125 0.765625 C 7.03125 0.929688 6.773438 1.09375 6.515625 1.25 C 6.265625 1.414062 6.007812 1.570312 5.75 1.71875 C 5.507812 1.851562 5.273438 1.976562 5.046875 2.09375 C 4.816406 2.207031 4.582031 2.320312 4.34375 2.4375 C 4.15625 2.53125 3.96875 2.617188 3.78125 2.703125 C 3.601562 2.785156 3.414062 2.859375 3.21875 2.921875 C 3.070312 2.972656 2.941406 3.019531 2.828125 3.0625 C 2.722656 3.101562 2.613281 3.140625 2.5 3.171875 C 2.394531 3.203125 2.253906 3.234375 2.078125 3.265625 C 1.972656 3.285156 1.863281 3.300781 1.75 3.3125 C 1.644531 3.320312 1.578125 3.332031 1.546875 3.34375 C 1.492188 3.351562 1.441406 3.359375 1.390625 3.359375 C 1.347656 3.359375 1.304688 3.359375 1.265625 3.359375 Z M 1.265625 3.359375 "/></g></g></g><g clip-path="url(#c348f682ae)"><g fill="#c1a47d" fill-opacity="1"><g transform="translate(18.315347, 16.421391)"><g><path d="M 10.4375 -10.34375 C 10.539062 -10.320312 10.628906 -10.265625 10.703125 -10.171875 C 10.785156 -10.078125 10.828125 -9.988281 10.828125 -9.90625 C 10.816406 -9.769531 10.773438 -9.640625 10.703125 -9.515625 C 10.640625 -9.398438 10.5625 -9.289062 10.46875 -9.1875 C 10.363281 -9.082031 10.253906 -8.976562 10.140625 -8.875 C 10.035156 -8.78125 9.925781 -8.6875 9.8125 -8.59375 C 9.613281 -8.40625 9.40625 -8.226562 9.1875 -8.0625 C 8.976562 -7.90625 8.765625 -7.75 8.546875 -7.59375 C 8.390625 -7.488281 8.234375 -7.390625 8.078125 -7.296875 C 7.921875 -7.203125 7.765625 -7.101562 7.609375 -7 C 7.429688 -6.882812 7.253906 -6.773438 7.078125 -6.671875 C 6.910156 -6.566406 6.738281 -6.460938 6.5625 -6.359375 C 6.1875 -6.140625 5.804688 -5.925781 5.421875 -5.71875 C 5.046875 -5.507812 4.660156 -5.316406 4.265625 -5.140625 C 3.921875 -4.992188 3.554688 -4.878906 3.171875 -4.796875 C 3.035156 -4.765625 2.925781 -4.726562 2.84375 -4.6875 C 2.769531 -4.644531 2.679688 -4.554688 2.578125 -4.421875 C 2.503906 -4.367188 2.441406 -4.316406 2.390625 -4.265625 C 2.335938 -4.222656 2.285156 -4.179688 2.234375 -4.140625 C 2.191406 -4.117188 2.148438 -4.078125 2.109375 -4.015625 C 2.066406 -3.960938 2.023438 -3.914062 1.984375 -3.875 L -1.5625 -0.34375 C -1.6875 -0.207031 -1.8125 -0.0703125 -1.9375 0.0625 C -2.0625 0.195312 -2.1875 0.332031 -2.3125 0.46875 C -2.226562 0.46875 -2.128906 0.460938 -2.015625 0.453125 C -1.910156 0.441406 -1.84375 0.4375 -1.8125 0.4375 C -1.457031 0.375 -1.113281 0.28125 -0.78125 0.15625 C -0.445312 0.0390625 -0.101562 -0.09375 0.25 -0.25 C 0.539062 -0.375 0.785156 -0.488281 0.984375 -0.59375 C 1.191406 -0.707031 1.414062 -0.820312 1.65625 -0.9375 C 1.820312 -1.007812 1.972656 -1.085938 2.109375 -1.171875 C 2.253906 -1.253906 2.40625 -1.335938 2.5625 -1.421875 C 2.613281 -1.453125 2.664062 -1.488281 2.71875 -1.53125 C 2.78125 -1.570312 2.835938 -1.609375 2.890625 -1.640625 C 3.085938 -1.765625 3.289062 -1.894531 3.5 -2.03125 C 3.71875 -2.175781 3.925781 -2.328125 4.125 -2.484375 C 4.175781 -2.515625 4.21875 -2.539062 4.25 -2.5625 C 4.289062 -2.59375 4.320312 -2.617188 4.34375 -2.640625 C 4.4375 -2.703125 4.488281 -2.707031 4.5 -2.65625 C 4.5 -2.625 4.488281 -2.601562 4.46875 -2.59375 C 4.457031 -2.582031 4.429688 -2.5625 4.390625 -2.53125 C 4.347656 -2.5 4.320312 -2.476562 4.3125 -2.46875 L 4.140625 -2.359375 C 3.941406 -2.203125 3.742188 -2.054688 3.546875 -1.921875 C 3.359375 -1.785156 3.1875 -1.675781 3.03125 -1.59375 C 2.8125 -1.445312 2.601562 -1.316406 2.40625 -1.203125 C 2.21875 -1.097656 2.019531 -0.988281 1.8125 -0.875 C 1.570312 -0.75 1.351562 -0.640625 1.15625 -0.546875 C 0.96875 -0.453125 0.753906 -0.347656 0.515625 -0.234375 C 0.359375 -0.171875 0.207031 -0.109375 0.0625 -0.046875 C -0.0703125 0.015625 -0.210938 0.078125 -0.359375 0.140625 C -0.515625 0.191406 -0.632812 0.234375 -0.71875 0.265625 C -0.800781 0.296875 -0.925781 0.332031 -1.09375 0.375 C -1.164062 0.394531 -1.234375 0.414062 -1.296875 0.4375 C -1.359375 0.457031 -1.441406 0.476562 -1.546875 0.5 C -1.722656 0.539062 -1.882812 0.5625 -2.03125 0.5625 C -2.175781 0.570312 -2.300781 0.582031 -2.40625 0.59375 C -2.375 0.6875 -2.34375 0.796875 -2.3125 0.921875 C -2.289062 1.054688 -2.28125 1.207031 -2.28125 1.375 C -2.28125 1.445312 -2.28125 1.523438 -2.28125 1.609375 C -2.289062 1.703125 -2.3125 1.789062 -2.34375 1.875 C -2.425781 2.144531 -2.546875 2.414062 -2.703125 2.6875 C -2.867188 2.957031 -3.039062 3.207031 -3.21875 3.4375 C -3.394531 3.664062 -3.554688 3.859375 -3.703125 4.015625 C -3.796875 4.117188 -3.90625 4.242188 -4.03125 4.390625 C -4.164062 4.535156 -4.296875 4.675781 -4.421875 4.8125 C -4.546875 4.957031 -4.65625 5.082031 -4.75 5.1875 C -5.019531 5.46875 -5.316406 5.703125 -5.640625 5.890625 C -5.734375 5.953125 -5.832031 6.003906 -5.9375 6.046875 C -6.050781 6.085938 -6.15625 6.125 -6.25 6.15625 C -6.28125 6.164062 -6.328125 6.171875 -6.390625 6.171875 C -6.523438 6.171875 -6.648438 6.144531 -6.765625 6.09375 C -6.878906 6.050781 -6.957031 6 -7 5.9375 C -7.050781 5.894531 -7.078125 5.816406 -7.078125 5.703125 C -7.054688 5.472656 -7 5.269531 -6.90625 5.09375 C -6.8125 4.914062 -6.710938 4.738281 -6.609375 4.5625 C -6.472656 4.34375 -6.332031 4.128906 -6.1875 3.921875 C -6.039062 3.710938 -5.890625 3.507812 -5.734375 3.3125 C -5.671875 3.226562 -5.597656 3.144531 -5.515625 3.0625 C -5.441406 2.976562 -5.367188 2.894531 -5.296875 2.8125 C -5.179688 2.664062 -5.054688 2.519531 -4.921875 2.375 C -4.796875 2.238281 -4.664062 2.101562 -4.53125 1.96875 C -4.53125 1.957031 -4.488281 1.90625 -4.40625 1.8125 C -4.320312 1.726562 -4.21875 1.617188 -4.09375 1.484375 C -3.96875 1.359375 -3.84375 1.226562 -3.71875 1.09375 C -3.601562 0.96875 -3.503906 0.859375 -3.421875 0.765625 C -3.335938 0.679688 -3.289062 0.640625 -3.28125 0.640625 L -2.671875 -0.015625 C -2.554688 -0.148438 -2.429688 -0.273438 -2.296875 -0.390625 C -2.171875 -0.515625 -2.054688 -0.640625 -1.953125 -0.765625 C -1.703125 -1.035156 -1.445312 -1.296875 -1.1875 -1.546875 C -0.925781 -1.804688 -0.671875 -2.070312 -0.421875 -2.34375 L 0.34375 -3.15625 L 0.8125 -3.59375 C 0.820312 -3.613281 0.832031 -3.628906 0.84375 -3.640625 C 0.851562 -3.648438 0.863281 -3.660156 0.875 -3.671875 C 0.914062 -3.710938 1 -3.796875 1.125 -3.921875 C 1.25 -4.046875 1.394531 -4.1875 1.5625 -4.34375 C 1.726562 -4.507812 1.898438 -4.675781 2.078125 -4.84375 C 2.253906 -5.007812 2.410156 -5.160156 2.546875 -5.296875 C 2.679688 -5.441406 2.785156 -5.546875 2.859375 -5.609375 C 2.972656 -5.703125 3.082031 -5.796875 3.1875 -5.890625 C 3.300781 -5.992188 3.414062 -6.09375 3.53125 -6.1875 C 3.613281 -6.257812 3.695312 -6.328125 3.78125 -6.390625 C 3.863281 -6.453125 3.941406 -6.519531 4.015625 -6.59375 C 4.242188 -6.800781 4.476562 -7 4.71875 -7.1875 C 4.96875 -7.375 5.210938 -7.554688 5.453125 -7.734375 C 5.679688 -7.910156 5.914062 -8.082031 6.15625 -8.25 C 6.394531 -8.414062 6.632812 -8.578125 6.875 -8.734375 C 7.164062 -8.921875 7.457031 -9.109375 7.75 -9.296875 C 8.050781 -9.492188 8.359375 -9.675781 8.671875 -9.84375 C 8.878906 -9.957031 9.085938 -10.054688 9.296875 -10.140625 C 9.503906 -10.222656 9.71875 -10.285156 9.9375 -10.328125 C 9.976562 -10.347656 10.019531 -10.359375 10.0625 -10.359375 C 10.101562 -10.359375 10.144531 -10.359375 10.1875 -10.359375 C 10.226562 -10.359375 10.269531 -10.359375 10.3125 -10.359375 C 10.351562 -10.359375 10.394531 -10.351562 10.4375 -10.34375 Z M 10.296875 -9.21875 C 10.335938 -9.257812 10.390625 -9.328125 10.453125 -9.421875 C 10.523438 -9.523438 10.5625 -9.617188 10.5625 -9.703125 C 10.5625 -9.773438 10.539062 -9.832031 10.5 -9.875 C 10.4375 -9.90625 10.367188 -9.921875 10.296875 -9.921875 C 10.265625 -9.921875 10.234375 -9.914062 10.203125 -9.90625 C 10.179688 -9.90625 10.148438 -9.90625 10.109375 -9.90625 C 9.890625 -9.84375 9.679688 -9.757812 9.484375 -9.65625 C 9.285156 -9.550781 9.09375 -9.441406 8.90625 -9.328125 C 8.632812 -9.171875 8.363281 -9.003906 8.09375 -8.828125 C 7.820312 -8.648438 7.550781 -8.46875 7.28125 -8.28125 C 7.019531 -8.101562 6.757812 -7.921875 6.5 -7.734375 C 6.238281 -7.546875 5.976562 -7.351562 5.71875 -7.15625 C 5.625 -7.09375 5.53125 -7.023438 5.4375 -6.953125 C 5.34375 -6.878906 5.25 -6.804688 5.15625 -6.734375 C 5.050781 -6.640625 4.945312 -6.550781 4.84375 -6.46875 C 4.75 -6.382812 4.648438 -6.296875 4.546875 -6.203125 C 4.421875 -6.109375 4.296875 -6.007812 4.171875 -5.90625 C 4.046875 -5.800781 3.921875 -5.691406 3.796875 -5.578125 C 3.722656 -5.503906 3.648438 -5.425781 3.578125 -5.34375 C 3.503906 -5.269531 3.421875 -5.207031 3.328125 -5.15625 C 3.304688 -5.144531 3.269531 -5.109375 3.21875 -5.046875 C 3.164062 -4.992188 3.132812 -4.957031 3.125 -4.9375 C 3.195312 -4.925781 3.300781 -4.941406 3.4375 -4.984375 C 3.582031 -5.023438 3.6875 -5.0625 3.75 -5.09375 C 4.0625 -5.207031 4.367188 -5.328125 4.671875 -5.453125 C 4.972656 -5.585938 5.265625 -5.738281 5.546875 -5.90625 C 5.691406 -6 5.832031 -6.082031 5.96875 -6.15625 C 6.101562 -6.226562 6.238281 -6.304688 6.375 -6.390625 C 6.613281 -6.546875 6.859375 -6.695312 7.109375 -6.84375 C 7.359375 -6.988281 7.609375 -7.132812 7.859375 -7.28125 C 8.023438 -7.382812 8.179688 -7.488281 8.328125 -7.59375 C 8.484375 -7.707031 8.640625 -7.820312 8.796875 -7.9375 C 9.066406 -8.132812 9.328125 -8.335938 9.578125 -8.546875 C 9.835938 -8.765625 10.078125 -8.988281 10.296875 -9.21875 Z M -2.390625 1.46875 C -2.378906 1.351562 -2.390625 1.21875 -2.421875 1.0625 C -2.453125 0.90625 -2.484375 0.773438 -2.515625 0.671875 L -2.890625 1.0625 C -2.898438 1.070312 -2.929688 1.109375 -2.984375 1.171875 C -3.035156 1.234375 -3.09375 1.296875 -3.15625 1.359375 L -3.25 1.484375 C -3.257812 1.492188 -3.296875 1.53125 -3.359375 1.59375 C -3.421875 1.65625 -3.484375 1.722656 -3.546875 1.796875 C -3.609375 1.867188 -3.640625 1.914062 -3.640625 1.9375 L -3.640625 1.921875 C -3.691406 1.960938 -3.75 2.019531 -3.8125 2.09375 C -3.875 2.164062 -3.925781 2.21875 -3.96875 2.25 C -4.125 2.40625 -4.273438 2.566406 -4.421875 2.734375 C -4.566406 2.910156 -4.707031 3.082031 -4.84375 3.25 C -5.007812 3.445312 -5.171875 3.640625 -5.328125 3.828125 C -5.492188 4.015625 -5.65625 4.210938 -5.8125 4.421875 C -6 4.660156 -6.171875 4.90625 -6.328125 5.15625 C -6.378906 5.21875 -6.425781 5.289062 -6.46875 5.375 C -6.507812 5.46875 -6.546875 5.550781 -6.578125 5.625 C -6.609375 5.695312 -6.625 5.769531 -6.625 5.84375 C -6.625 5.925781 -6.601562 5.984375 -6.5625 6.015625 C -6.519531 6.046875 -6.472656 6.0625 -6.421875 6.0625 C -6.367188 6.0625 -6.3125 6.050781 -6.25 6.03125 C -6.195312 6.019531 -6.15625 6.003906 -6.125 5.984375 C -5.957031 5.929688 -5.789062 5.851562 -5.625 5.75 C -5.46875 5.644531 -5.320312 5.546875 -5.1875 5.453125 C -4.96875 5.253906 -4.726562 5.015625 -4.46875 4.734375 C -4.21875 4.453125 -3.992188 4.191406 -3.796875 3.953125 C -3.484375 3.578125 -3.238281 3.257812 -3.0625 3 C -2.882812 2.738281 -2.75 2.515625 -2.65625 2.328125 C -2.5625 2.148438 -2.5 1.992188 -2.46875 1.859375 C -2.4375 1.722656 -2.410156 1.59375 -2.390625 1.46875 Z M -2.390625 1.46875 "/></g></g></g></g></svg>